<svg xmlns="http://www.w3.org/2000/svg" width="147.368" height="31.052" viewBox="0 0 147.368 31.052"><g transform="translate(0 0)"><g transform="translate(0 5.198)"><rect width="2.647" height="9.558" transform="translate(35.749 10.165)"/><rect width="2.647" height="9.558" transform="translate(44.278 10.165)"/><rect width="16.47" height="2.206" transform="translate(32.97 6.753)"/><path d="M175.639,172.109l-8.235-5.441h0l-8.235,5.441Z" transform="translate(-126.19 -166.668)"/><path d="M76.855,187.058a6.712,6.712,0,0,0-2.639-.557,1.8,1.8,0,0,0-2.044,1.8c0,2.249,5.687,1.3,5.687,5.649,0,2.843-2.249,3.921-4.869,3.921a11.429,11.429,0,0,1-3.326-.5l.241-2.341a6.265,6.265,0,0,0,2.936.8c.985,0,2.3-.5,2.3-1.672,0-2.472-5.686-1.45-5.686-5.742,0-2.9,2.249-3.958,4.534-3.958a9.782,9.782,0,0,1,3.1.465Z" transform="translate(-69.459 -177.918)"/><path d="M97.832,187.109H94.115v-2.044H104.15v2.044h-3.717v10.927h-2.6Z" transform="translate(-85.051 -178.302)"/><path d="M125.407,185.063h2.6v7.489c0,2.211.706,3.661,2.695,3.661s2.695-1.45,2.695-3.661v-7.489H136v8.287c0,3.475-1.97,4.906-5.3,4.906s-5.3-1.431-5.3-4.906Z" transform="translate(-104.84 -178.301)"/><path d="M218.4,187.188a8.487,8.487,0,0,0-3.345-.687,4.416,4.416,0,0,0-4.7,4.7c0,2.639,1.635,4.627,4.4,4.627a7.038,7.038,0,0,0,1.709-.186v-3.382h-2.75v-2.044h5.24V197.2a16.346,16.346,0,0,1-4.2.669c-4.2,0-7.117-2.1-7.117-6.485,0-4.441,2.713-6.931,7.117-6.931a12.811,12.811,0,0,1,3.809.539Z" transform="translate(-156.841 -177.918)"/><path d="M247.545,185.063h2.936l5.091,12.97h-2.88l-1.115-2.973h-5.259l-1.134,2.973h-2.694Zm1.431,2.6h-.037l-1.877,5.351h3.791Z" transform="translate(-178.882 -178.301)"/><path d="M283.427,185.063h2.806c2.787,0,6.113-.093,6.113,3.512a2.967,2.967,0,0,1-2.676,3.01v.037c.707.056,1.115.762,1.375,1.338l2.081,5.073h-2.9l-1.561-4.051c-.372-.966-.706-1.337-1.8-1.337h-.836v5.388h-2.6Zm2.6,5.538h.855c1.282,0,2.75-.186,2.75-1.8,0-1.561-1.449-1.691-2.75-1.691h-.855Z" transform="translate(-204.77 -178.3)"/><path d="M314.872,187.021h-3.735v-2.054h10.085v2.054h-3.735V198h-2.614Z" transform="translate(-222.293 -178.24)"/></g><g transform="translate(124.68 4.339)"><path d="M441.943,202.593l-.029.01h.039Z" transform="translate(-429.675 -188.528)"/><path d="M431.291,170.893c.069-.147-.069-.265-.118-.374-.167-.187-.364-.3-.53-.462-.137.01-.177-.108-.275-.128,0,.01.01.03-.01.039a3.851,3.851,0,0,1,.334.256c.049.118.157.128.177.226.029.068.069.177.01.246-.029-.02-.1-.01-.1-.059a.8.8,0,0,0-.373,0,.306.306,0,0,0-.1.285c-.01.128.147.157.1.294,0,.039-.059.059-.039.079-.069.059-.2.029-.294.019-.02-.068-.128-.039-.2-.059-.019-.019.029-.01,0-.029-.226-.049-.452-.147-.687-.216l.019-.019a1.784,1.784,0,0,1-.452-.108,3.57,3.57,0,0,0-.8-.01.875.875,0,0,0-.4.176,3.749,3.749,0,0,0-.57.825c-.069.01-.039.128-.118.1.039-.157.2-.3.2-.481a.507.507,0,0,0-.088-.324c-.148-.108-.246-.294-.383-.412-.128-.059-.246-.148-.364-.216a.036.036,0,0,1,.02-.01.091.091,0,0,0-.1-.01c-.01.069.1.02.089.088.029,0,.049.02.079.02.138.157.265.265.393.422-.039.03.039.069.02.089a.424.424,0,0,1-.138.422c-.108.108-.246.187-.354.3-.393.471-.167,1.08-.01,1.591a3.953,3.953,0,0,1,.373,1.326c-.059.265.01.57-.2.8-.1.01-.1.108-.177.108l.02.019c-.059.029-.187,0-.176.069l-.5.01c-.138-.069-.226-.089-.363-.147.01-.01.01-.01.02-.01a6.206,6.206,0,0,1-.648-.511l.01-.01a4.605,4.605,0,0,0-.363-.295l.01-.01-.1-.04.01-.01c-.187-.069-.334-.255-.55-.3l-.255-.039h.01c-.275-.02-.57-.137-.835-.177,0,0,.005,0,.011,0-.068-.042-.161-.026-.227-.056.01,0,.01-.01.02-.01-.059-.039-.147-.02-.216-.049a.037.037,0,0,1,.029-.01,1.021,1.021,0,0,0-.187-.049.011.011,0,0,0,.007,0c-.145-.023-.179-.115-.341-.115l.01-.01c-.207-.088-.412-.147-.6-.226l.01-.019c-.04-.02-.1,0-.138-.049l.01-.01c-.1-.01-.167-.1-.246-.1l.02-.019a2.064,2.064,0,0,1-.482-.275l.01-.01-.079-.049.01-.01c-.029-.039-.118-.01-.1-.069h.01c-.1-.049-.157-.108-.246-.147.01-.01,0-.029.01-.039a2.97,2.97,0,0,1-.422-.354.541.541,0,0,1,.128-.472,1.578,1.578,0,0,1,.255-.206l-.01-.01c.157-.019.226-.089.383-.108v-.01l.078-.029c.03-.069-.078-.019-.059-.088a2.389,2.389,0,0,0-.373-.147v-.01l-.128-.059c.01-.029-.049-.049-.039-.078a.167.167,0,0,1,.137-.01,1.056,1.056,0,0,0,.412.128c.187-.049.344-.01.511-.069a.571.571,0,0,0,.383.029c.059-.02-.029-.049-.029-.078-.079-.04-.147-.108-.226-.157l.01-.01c-.128-.088-.285-.059-.412-.088a.01.01,0,0,1,.01-.01c-.049-.039-.128-.019-.187-.049-.01-.039-.128-.1-.177-.118.029-.039-.079-.02-.049-.088.029-.03.088-.02.128-.01a1.439,1.439,0,0,0,.324.088c.088-.059.246-.01.3-.088a7.82,7.82,0,0,0,.835-.03c.039-.078-.088-.108-.128-.137-.049-.01-.118,0-.147-.039l.01-.01a1.884,1.884,0,0,1-.246-.108c0-.009.009-.011.014-.011-.21,0-.4-.1-.6-.087a1.573,1.573,0,0,1-.216-.177c.01-.03-.019-.039.019-.049a1.547,1.547,0,0,0,.3-.02l.02-.039a1.806,1.806,0,0,0,.412-.049.5.5,0,0,0-.157-.088c.01-.01.01-.01.01-.02-.147.01-.236-.078-.373-.078-.01-.069-.137-.029-.147-.128.059-.069.226-.029.334-.029,0,.01-.049,0-.01.01a.71.71,0,0,0,.511-.059c.029-.039.128-.02.128-.079.275-.059.521.147.776.029-.01,0-.02,0-.02-.01l.088-.039c.02-.039,0-.039,0-.088-.216,0-.442-.236-.628-.187-.167-.088-.4-.02-.59-.069,0-.059-.157-.029-.216-.069l.019-.019a.467.467,0,0,1-.255-.138c.187-.029.4.02.609-.01.177-.059.344-.089.5-.157.246-.01.461.01.717-.02-.02-.059.069-.029.1-.059-.029-.029.059-.029.029-.078a2.75,2.75,0,0,1-.3-.089l.01-.01c-.108-.04-.2-.118-.295-.108l.01-.01a6.629,6.629,0,0,1-.766.02,2,2,0,0,1-.452-.246.512.512,0,0,1,.147-.118c.019-.1-.128-.059-.137-.138a5.168,5.168,0,0,0,.56-.148c0-.049.118-.059.1-.088.177-.059.393.01.55-.059a.488.488,0,0,0,.324-.137c.01-.147-.2-.069-.295-.108a1.245,1.245,0,0,0-.7-.157,1.4,1.4,0,0,1-.609.04c-.078-.079-.2-.04-.275-.118.02-.049.1-.069.108-.1.177-.088.364-.118.521-.187-.01-.01-.069-.049-.039-.039-.118-.059-.226-.059-.334-.108-.186-.029-.4-.01-.589-.04l.01-.01-.138-.039c.01-.039.079,0,.1-.039,0,0-.02.01-.02,0a2.432,2.432,0,0,1,.383-.039c.246-.069.442-.255.668-.265.137.069.265-.02.4-.02.019-.049.108-.088.1-.157h-.256c-.029-.079-.167-.029-.236-.069,0-.01.01-.01.02-.01-.059-.059-.167,0-.187-.078l-.275-.029a.033.033,0,0,1,.02-.01,7.848,7.848,0,0,0-1.434-.039c0-.049.069-.059.079-.088a2.866,2.866,0,0,1,.491-.167l-.01-.01.138-.039-.029-.019.1-.039a.592.592,0,0,0,.069-.137c-.01-.01-.029,0-.039-.01-.029.019-.029.029-.029.049a1.621,1.621,0,0,0-.373-.059c-.019-.069-.147-.019-.177-.088a7.712,7.712,0,0,0-.815-.01c.147-.128.374-.137.482-.285a3.97,3.97,0,0,1-.825-.04.036.036,0,0,1,.029-.01c-.069,0-.148-.039-.216.02-.02.285-.118.521-.148.815a.235.235,0,0,1,.089.029c-.02.01,0,.01-.02.019.1-.01.088.089.167.1l.363.334c.118.167.265.334.383.511a4.347,4.347,0,0,1,.4.766,4.911,4.911,0,0,1,.088,2.593c-.1.6-.285,1.169-.442,1.758-.029.01-.049.039-.079.019.02-.088-.1-.1-.079-.177-.157-.137.01-.353.03-.521a7.053,7.053,0,0,0,.412-2.75c-.02-.079.01-.147-.01-.2a3.73,3.73,0,0,0-.393-1.139,5.339,5.339,0,0,0-.521-.746,2.112,2.112,0,0,1-.3-.285c-.118-.01-.157-.137-.265-.157.01,0,.01-.01.02-.01-.1-.059-.216-.118-.315-.186.01-.039.069-.02.1-.02.157-.019.127-.2.206-.294.029-.364.148-.776.138-1.11-.127.255-.2.619-.462.786-.068.118-.186.108-.246.187l.01.01c-.079.019-.1.078-.187.108-.088.089-.059.266-.2.255-.079-.069.02-.235.039-.324.059-.137.226-.127.334-.216v-.01l.128-.049a.16.16,0,0,0,.04-.068l-.275-.04a.035.035,0,0,1,.019-.01,1.692,1.692,0,0,0-.451-.01c.01.029-.029.029-.04.029-.176.088-.187.334-.216.462a2.876,2.876,0,0,0-.422.167l.01.01c-.108.01-.147.088-.255.1l.01.01-.147.049c.01,0,.019,0,.019.01l-.579.275.01.01-.148.05.01.01-.108.049.01.01a1.014,1.014,0,0,0-.324.167l.01.01-.118.039.01.01c-.128.069-.3.167-.4.236a2.218,2.218,0,0,1-.53.167l.01.01c-.108-.02-.128.1-.226.108a.624.624,0,0,0-.128.187c-.216.246.01.53-.1.776-.01.1.147.039.177.089.236.039.462,0,.7.039a.035.035,0,0,1-.02.01l.226.01c.079.019.039.069.049.118-.216.088-.393.2-.6.275a.036.036,0,0,1,.029.01c-.079.029-.147.049-.216.078-.039.069.1.049.069.108.088.029.059.059.147.088-.01,0-.01.01-.02.01.02.039.069.019.108.049a.035.035,0,0,1-.029.01c.029.029.1.01.108.068a.732.732,0,0,0,.5-.009c-.01-.05.049-.03.079-.05l-.01-.01c.068-.039.1-.1.186-.118l-.01-.01c.108-.069.226-.147.344-.216a3.875,3.875,0,0,1,.648-.147c.108.079.216.2.324.265.147-.01.177.078.324.059a1.621,1.621,0,0,0,.56-.177l-.01-.01c.108-.029.148-.137.246-.157l-.01-.01c.118-.079.147-.246.285-.255.049.068-.029.147-.068.2-.049.079-.137.157-.207.255a3.516,3.516,0,0,1-.3.216c-.118,0-.167.108-.285.108.01,0,.029,0,.029.01-.088.029-.207.01-.285.059a.211.211,0,0,0-.186.1,6.257,6.257,0,0,0-.56.579,11.826,11.826,0,0,0-1.139,1.69,1.751,1.751,0,0,1-.236.226c-.089.128-.206.226-.295.363a1.44,1.44,0,0,0-.246.472,3.87,3.87,0,0,0-.324-.236.035.035,0,0,1,.02-.01c-.069-.039-.128-.079-.177-.108h.01l-.089-.059.01-.01c-.108-.01-.049-.068-.157-.1a7.481,7.481,0,0,1-.609-.747,2.511,2.511,0,0,0-.137-.383.13.13,0,0,1-.079-.108c-.1-.018-.083-.089-.18-.1-.245.125-.557,0-.753.244-.049.157-.157.275-.226.452a8.154,8.154,0,0,0-.55.639c-.137.089-.167.186-.295.275l.01.01c-.118.1-.226.2-.344.3-.226.108-.236.412-.295.6.02.147.049.206.079.363a.806.806,0,0,1-.246.688.839.839,0,0,1-.412.147c.02,0,.01.02.01.029a.856.856,0,0,1,.324.04.477.477,0,0,1,.059.167c-.049.147-.049.393-.088.56l.049.029c-.01.01-.02.019-.02.029a1.958,1.958,0,0,0,.59-.01c.019-.049.138-.029.176-.049a2.438,2.438,0,0,1,.315-.118c-.01-.059.128-.049.118-.1.167-.128.137-.4.187-.58l-.619-.019c.029-.049-.039-.089,0-.138.137-.049.3-.089.462-.137.02-.118.029-.256.128-.325.059-.128.206-.177.314-.265.108-.039-.029-.147,0-.226a.6.6,0,0,1-.088-.177c-.088-.078-.138-.157-.246-.2-.01-.068.069-.118.1-.187.285-.275.579-.5.825-.786a.077.077,0,0,1,.079-.019c.108-.029.078.059.157.088.089.157.246.265.314.393a2.151,2.151,0,0,1,.295.55,3.746,3.746,0,0,1,.206.717c.019.049.059.078.069.128a1.957,1.957,0,0,0,.452.216c.147-.02.167.108.3.078a2.973,2.973,0,0,1-.01-.726c.039-.079.069-.187.118-.285.039-.029.059,0,.088.02a1.77,1.77,0,0,0,.039.933c-.019.118.059.187.069.295-.157.118-.314.039-.481.039.02-.019.039-.01.059-.01-.176-.02-.324-.079-.5-.108.01,0,.01-.01.019-.01-.294-.01-.511-.246-.8-.285l.019-.01a.432.432,0,0,0-.314,0c.01,0,.029-.01.029.01-.177.049-.226.3-.295.452-.216.275.059.521.069.786a3.09,3.09,0,0,1,.079.363c.039.491.049,1,.118,1.483.039.108.157.176.186.285.089.01.147.1.236.1-.01.01-.01.01-.019.01.039.029.1.01.128.059h-.01c.088.02.128.089.216.108l-.01.01a1.419,1.419,0,0,1,.186.157c.029.079.02.167.069.236a1.214,1.214,0,0,1,.01.5c.069.04.059-.068.108-.078l-.01-.01c.039-.049.108-.02.157-.02a3.056,3.056,0,0,0,.314.3c.029.049.069.1.1.157.039.01.118.029.147-.02s.078-.1.118-.157c.167-.4.422-.914.147-1.316-.088-.059-.118-.157-.2-.2-.108.255-.226.4-.324.658a.362.362,0,0,1-.147-.029,2.278,2.278,0,0,1,.246-.668.392.392,0,0,1-.216-.039.932.932,0,0,0-.088-.118,1.45,1.45,0,0,1,.059-.7c-.019-.02-.079.01-.069-.039l-.354-.039a.282.282,0,0,1,.089-.01h-.226a.061.061,0,0,1,.039.01c-.108-.01-.206.059-.285.01a8.551,8.551,0,0,1-.069-1.11c.226-.079.452.079.688.128-.01.01-.02.019-.03.019l.137.039-.019.02c.1.01.128.089.226.1l-.03.029a.541.541,0,0,1,.137.029l-.029.029c.039.01.089.01.118.039l-.019.02c.088,0,.118.089.2.089l-.02.019.108.049-.019.02c.118-.02.1.1.206.088l-.02.029a.276.276,0,0,1,.118.04c-.01,0-.01.01-.02.01a4.3,4.3,0,0,1,.471.246,3.57,3.57,0,0,1,.491.167.837.837,0,0,0,.383,0c.029-.069.1-.118.128-.176a1.88,1.88,0,0,0,.236-.993c.019.02.059-.029.078.01a4.586,4.586,0,0,1-.039,1.218c.108.01.108.108.216.108l-.02.019c.029.02.1.02.1.059l.118.049-.01.01.1.04-.029.029a.58.58,0,0,1,.128.029c-.029.01-.01.019-.01.029.04,0,.06.029.1.039l-.02.01c.108.088.236.088.324.176h-.01a1.519,1.519,0,0,1,.324.177h-.01l.138.049-.019.02.137.039-.02.02c.049.01.1.01.128.049h-.01c.029.029.088.029.128.039l-.01.039c.127-.039.138.1.265.089a.034.034,0,0,1-.019.01,3.291,3.291,0,0,0,.619.216l-.01.02a3.1,3.1,0,0,1,.8.246c.206-.01.295.088.491.088a.035.035,0,0,0-.01.019c.226.039.432.079.648.1,0,.01-.039,0-.019.01.128.039.275.02.4.049l-.01.01c.344-.01.629.108.972.108-.01,0-.01.01-.02.01l.108.039c.039.3.049.58.089.874.039.108.069.236.1.334.108.088-.059.108-.01.2-.049-.02-.069-.1-.108-.128a2.977,2.977,0,0,0-.177-.354,3.039,3.039,0,0,1-.167-.56c-.01-.138-.226-.059-.334-.1a.159.159,0,0,1,.069-.01l-.579-.039c0-.007.007-.009.015-.011-.147-.038-.322-.029-.458-.058.01-.01.019,0,.029,0a.3.3,0,0,0-.186-.029,4.156,4.156,0,0,0,.511,1.1,6.036,6.036,0,0,1,.422.472c.088-.01.049.089.128.078.079.177.295.275.364.472a3.574,3.574,0,0,1-.059,1.208,13.435,13.435,0,0,1-.913,1.208c-.128.128-.285.2-.422.324-.216.138-.334.413-.521.58a1.648,1.648,0,0,1-.57.157c-.01.049.059.059.059.1.01.3-.255.57-.284.874.079.01.147.089.246.059a1.78,1.78,0,0,0,.687.029c.108-.069.236.01.324-.079a.842.842,0,0,0,.422-.54c-.019-.01-.059-.02-.039-.029-.187,0-.383-.069-.55-.079a.317.317,0,0,1,.019-.187c.207-.049.491.069.648-.068l-.01-.01c.089-.069.138-.176.256-.2l-.01-.01a2.5,2.5,0,0,1,.57-.138v-.01l.147-.019a.57.57,0,0,0-.079-.442c-.02-.059-.1-.089-.079-.157a5.145,5.145,0,0,1,.815-.963c.118-.078.256-.108.354-.167a2.911,2.911,0,0,0,.461-.314c.02-.059.138-.177.079-.275-.039-.246-.088-.5-.118-.757a.089.089,0,0,1,.1.029c-.01.01-.01.01-.019.01.137.039.236.176.373.226-.01,0-.01.01-.019.01.108.02.157.128.265.157l-.03.029a.674.674,0,0,1,.138.03.035.035,0,0,1-.029.01,3.549,3.549,0,0,0,.56.226c-.01,0-.01.01-.02,0,.039.059.167.01.187.078.226.255.491.53.7.805.069.108-.01.187-.039.285a4.845,4.845,0,0,1-.6,1.218,4.724,4.724,0,0,0-.638.766.767.767,0,0,1-.187.157l.01.01a2.694,2.694,0,0,1-.638.255.216.216,0,0,1,.079.177,1.7,1.7,0,0,1-.315.639c-.049.049-.039.088.01.118a2.927,2.927,0,0,0,.314.078l-.01.01a3.778,3.778,0,0,0,.943,0,.814.814,0,0,0,.54-.609c-.029-.01-.069-.01-.069-.029l-.344-.039.01-.01c-.088-.029-.216,0-.3-.039.039-.068.059-.147.118-.186a5.449,5.449,0,0,1,.58.01,2.349,2.349,0,0,1,.324-.383.765.765,0,0,1,.364-.147l-.01-.01.373-.04a.386.386,0,0,0-.088-.422.256.256,0,0,0-.118-.128.22.22,0,0,1-.059-.167c.108-.295.236-.56.373-.864.207-.432.638-.688.717-1.179-.01-.137.069-.314-.088-.383-.049-.069-.1-.108-.128-.148-.1,0-.059-.089-.147-.089-.1-.108-.2-.255-.285-.353-.138-.236-.294-.4-.413-.619a.5.5,0,0,1-.147-.128l-.01-.069c.226-.452.54-.874.746-1.306a2.048,2.048,0,0,0,.236-1.68c.039-.02.078-.02.088-.059h.157c.068.118.118.177.176.285.108.01.059.078.157.088l-.029.02.127.019c.02.029-.029.02,0,.04a.4.4,0,0,1,.148.039c-.01,0-.01.01-.02.01l.147.049c-.01,0-.01.01-.019.01l.108.049c-.01.01-.01.01-.02.01.02.02.1.039.059.068.138.157,0,.413-.068.6.127-.147.186-.364.314-.491a1.375,1.375,0,0,0,.039-.344c.03-.01.049.01.069.039.02.1.108.118.137.186a3.169,3.169,0,0,0,.432.029c0,.059.118.039.1.1H428a.837.837,0,0,0-.029-.314c-.1-.147-.275-.246-.3-.432a1.009,1.009,0,0,1-.177-.177c.04-.029.108-.01.157.019l-.02.019a.329.329,0,0,1,.128.04l-.02.01a.433.433,0,0,0,.315.01c.128-.01.147.1.275.079.039-.02.118-.01.108-.059l.324-.03c.03-.079-.049-.128-.069-.186h.01a2.641,2.641,0,0,0-.275-.108.954.954,0,0,1-.138-.147.586.586,0,0,1-.128-.019.091.091,0,0,1,.01-.108.655.655,0,0,1,.364.02c0,.039.088.029.118.089.186.059.275-.118.393-.138a.037.037,0,0,1-.029-.01c.039-.039.108-.01.157-.039-.039-.039-.03-.128-.108-.118-.029-.059-.138-.029-.2-.059l.02-.02-.128-.039c-.02-.059-.1-.108-.108-.137-.069-.029-.089-.089-.167-.1,0-.02.01-.02-.01-.039.079-.039.177-.01.256-.02.02-.069.118-.039.118-.079a.5.5,0,0,1,.344-.068c.029.048.147.029.216.01l-.01-.01.1-.03c-.02-.059.049-.049.029-.1-.019,0-.059,0-.069-.04l.01-.01a1.151,1.151,0,0,1-.364-.236c-.226-.059-.461.039-.668-.02-.039-.059-.157-.049-.236-.069,0-.01.01-.01.02-.01a.689.689,0,0,0-.354.069h.01c-.068,0-.127.059-.186.019a.479.479,0,0,1,.226-.2.608.608,0,0,1,.275-.137l-.01-.01c.216-.059.491.01.717-.05l-.01-.009.138-.04-.01-.01a.481.481,0,0,0,.177-.128c.137-.01.255.039.383.029.079-.059.2-.068.236-.157a.442.442,0,0,1,.226-.01c.108.029.108-.079.206-.079,0-.039.049-.049.069-.088-.137-.059-.265-.167-.412-.246-.069-.078-.216-.02-.334-.049,0-.079-.078-.01-.1-.069.118.019.216-.069.324-.069,0-.01.01-.02,0-.029a.551.551,0,0,1,.324-.118c.078.01.246.138.373.088-.01-.059.069-.029.1-.059-.02-.029.039-.059.029-.088a.9.9,0,0,1-.157-.029c-.02-.02-.1-.078-.138-.108,0-.01-.01-.029,0-.04-.118.019-.089-.088-.2-.088a.016.016,0,0,1,.006,0,1.087,1.087,0,0,0-.34-.036,1.144,1.144,0,0,0-.422-.246c.029-.108.157-.029.246-.039-.01.01-.01.01-.02.01a.469.469,0,0,0,.285.02c.147-.059.255-.167.412-.147.039.079.177.01.207.088a.546.546,0,0,0,.4-.069c.01-.039.079-.078.069-.118a.941.941,0,0,1-.344-.108c-.059-.079-.157-.108-.206-.2-.039-.029-.118.01-.128-.059l-.589-.019a.636.636,0,0,0-.3-.128c0-.01.02-.01.029-.01-.049-.039-.147-.02-.206-.049l.029-.019c-.1-.029-.216-.01-.314-.039.049-.1.2-.1.265-.157a2.861,2.861,0,0,1,.412,0c.088.088.265.019.354.088a3.7,3.7,0,0,0,.658.01c.049-.039.137-.069.2-.108.03-.049.039-.1.1-.128a.5.5,0,0,0-.078-.452c-.02-.108-.177-.167-.147-.294.177-.029.324.128.491.049,0-.01-.02-.01-.02-.019l.1-.029C431.222,170.923,431.281,170.913,431.291,170.893Zm-17.533-3.418a.348.348,0,0,0-.079.049h-.2a.365.365,0,0,0,.118-.147c.019-.059-.049-.118-.069-.2a.237.237,0,0,0-.167-.01c-.01-.059.1-.01.089-.079a.933.933,0,0,1,.236,0h-.01c-.02.059.108.039.089.088a.193.193,0,0,1,.049.167C413.827,167.406,413.787,167.426,413.758,167.475Zm2.092-.884a.5.5,0,0,1-.295.01c-.039-.069-.147-.118-.176-.2-.069-.049-.148-.029-.2-.039,0-.079.138-.019.128-.088a2.639,2.639,0,0,0,.373-.1l-.02-.01h.089c-.01,0-.01,0-.02.01a.431.431,0,0,1,.147.1A.355.355,0,0,1,415.85,166.591Z" transform="translate(-408.621 -164.332)"/><path d="M446.458,191.254l.008,0C446.479,191.258,446.468,191.254,446.458,191.254Z" transform="translate(-432.549 -181.357)"/><path d="M444.9,190.773l.013,0C444.9,190.769,444.9,190.771,444.9,190.773Z" transform="translate(-431.562 -181.052)"/><path d="M442.591,181.027h.016A.116.116,0,0,0,442.591,181.027Z" transform="translate(-430.103 -174.889)"/><path d="M416.824,180.916h.019A.013.013,0,0,0,416.824,180.916Z" transform="translate(-413.808 -174.817)"/><path d="M440.352,202.482h0C440.389,202.483,440.369,202.479,440.352,202.482Z" transform="translate(-428.687 -188.457)"/><path d="M467.125,188.368l.014,0A.012.012,0,0,0,467.125,188.368Z" transform="translate(-445.618 -179.531)"/></g><rect width="0.521" height="31.052" transform="translate(111.684 0)"/></g></svg>