<svg xmlns="http://www.w3.org/2000/svg" width="145.688" height="38.895" viewBox="0 0 145.688 38.895"><g transform="translate(-31.18 -41.107)"><path d="M124.834,95.356h5.888l.129-.742h-4.694L131.948,88l.13-.679H126.4l-.146.744h4.468l-5.758,6.628Zm-3.9.129a5.527,5.527,0,0,0,1.516-.209l.129-.775a5.7,5.7,0,0,1-1.275.178c-.71,0-1.1-.178-1.1-.791a1.569,1.569,0,0,1,.048-.354l.952-5.453h2.355l.113-.727h-2.338l.451-2.548h-.9l-.452,2.548h-1.565l-.129.727h1.581L119.3,93.774a3.864,3.864,0,0,0-.033.42c0,1.016.822,1.29,1.662,1.29m-10.4-4.661c.015-.048.08-.5.1-.547a2.867,2.867,0,0,1,2.759-2.372c1.355,0,1.9.71,1.9,1.774a7.529,7.529,0,0,1-.146,1.145Zm1.66,4.743a4.62,4.62,0,0,0,3.146-1.082l-.324-.581a4.6,4.6,0,0,1-2.661.905c-1.322,0-2.161-.648-2.161-1.808a12.289,12.289,0,0,1,.226-1.534H115.9a12.79,12.79,0,0,0,.275-1.935c0-1.564-1.049-2.371-2.646-2.371a3.849,3.849,0,0,0-3.887,3.419,16.939,16.939,0,0,0-.372,2.55c0,1.679,1.259,2.436,2.92,2.436M99.4,95.356h.887l.854-4.743a3.226,3.226,0,0,1,2.985-2.676c.951,0,1.581.4,1.581,1.4a6.423,6.423,0,0,1-.1.757l-.935,5.26h.9l1-5.694a4.093,4.093,0,0,0,.065-.645,1.865,1.865,0,0,0-2.08-1.87,3.8,3.8,0,0,0-3.114,1.742l-.048-.016.274-1.532h-.854c-.274,1.6-1.145,6.42-1.42,8.016" transform="translate(-24.296 -15.564)"/><path d="M196.456,69.064c.016-.048.08-.5.1-.549a2.869,2.869,0,0,1,2.759-2.371c1.355,0,1.9.71,1.9,1.774a7.578,7.578,0,0,1-.145,1.145Zm1.662,4.743a4.606,4.606,0,0,0,3.145-1.082l-.323-.58a4.6,4.6,0,0,1-2.662.9c-1.322,0-2.162-.643-2.162-1.805a12.6,12.6,0,0,1,.228-1.532h5.483a12.9,12.9,0,0,0,.274-1.937c0-1.564-1.049-2.371-2.645-2.371a3.848,3.848,0,0,0-3.887,3.421,16.893,16.893,0,0,0-.372,2.547c0,1.677,1.259,2.436,2.921,2.436m-8.936,0a4.117,4.117,0,0,0,3.242-1.37l-.371-.614a3.745,3.745,0,0,1-2.694,1.194c-1.322,0-2.017-.612-2.017-1.711a21.847,21.847,0,0,1,.4-2.662,2.67,2.67,0,0,1,2.676-2.5c1.372,0,1.855.775,1.855,1.517a3.914,3.914,0,0,1-.065.6h.839a3.967,3.967,0,0,0,.1-.758c0-1.29-.952-2.1-2.614-2.1a3.679,3.679,0,0,0-3.727,3.306,14.759,14.759,0,0,0-.419,2.759c0,1.5,1.128,2.339,2.79,2.339M176.551,73.6h.887l.858-4.743a3.221,3.221,0,0,1,2.982-2.678c.952,0,1.581.4,1.581,1.4a6.4,6.4,0,0,1-.1.758l-.935,5.259h.9l1-5.695a4.262,4.262,0,0,0,.062-.646,1.866,1.866,0,0,0-2.082-1.872,3.81,3.81,0,0,0-3.112,1.744l-.05-.017.276-1.532h-.856c-.274,1.6-1.144,6.42-1.419,8.018m-6.9-.565c-1.147,0-1.774-.628-1.774-1.58a3.946,3.946,0,0,1,.032-.437l.484-2.725a2.521,2.521,0,0,1,2.515-2.147,1.912,1.912,0,0,1,2.032,2,3.4,3.4,0,0,1-.048.565l-.274,1.6a3.279,3.279,0,0,1-2.967,2.727m-.323.775a3.746,3.746,0,0,0,2.984-1.821l.032.014-.291,1.6h.856l1.419-8.018h-.872L173.2,67h-.05a2.149,2.149,0,0,0-2.257-1.6,3.4,3.4,0,0,0-3.436,3c-.032.258-.435,2.435-.467,2.694a2.243,2.243,0,0,0-.064.563,2.119,2.119,0,0,0,2.4,2.146M151.742,73.6h.887l.855-4.743a3.224,3.224,0,0,1,2.984-2.678c.952,0,1.581.4,1.581,1.4a6.405,6.405,0,0,1-.1.758l-.935,5.259h.9l.854-4.838a3.27,3.27,0,0,1,2.969-2.582c.967,0,1.6.4,1.6,1.4a6.542,6.542,0,0,1-.1.758l-.935,5.259h.887c.225-1.21.8-4.484,1.015-5.695a4.405,4.405,0,0,0,.082-.646,1.886,1.886,0,0,0-2.113-1.872,3.934,3.934,0,0,0-3.227,1.856,1.843,1.843,0,0,0-2.049-1.856,3.806,3.806,0,0,0-3.112,1.744l-.049-.017.274-1.532h-.855Zm-7.163,0h.888l.791-4.469a3.261,3.261,0,0,1,3.274-2.823,6.644,6.644,0,0,1,.775.032l.161-.822a2.923,2.923,0,0,0-.534-.048,3.708,3.708,0,0,0-3.322,1.839h-.064l.3-1.727H146Zm-6.436-.55c-1.323,0-1.984-.661-1.984-1.71a2.1,2.1,0,0,1,.065-.627l.371-2.161a2.653,2.653,0,0,1,2.758-2.388c1.306,0,1.984.645,1.984,1.71a3.872,3.872,0,0,1-.064.6l-.371,2.178a2.645,2.645,0,0,1-2.758,2.4m-.1.759a3.644,3.644,0,0,0,3.758-3.162l.354-2.1a4.74,4.74,0,0,0,.082-.793c0-1.547-1.081-2.354-2.743-2.354a3.668,3.668,0,0,0-3.807,3.161l-.387,2.162a4.069,4.069,0,0,0-.064.742c0,1.58,1.145,2.339,2.807,2.339M129,76.485l.9-.178,1.775-10H133.6l.129-.709H131.8l.274-1.6a1.5,1.5,0,0,1,1.517-1.387,2.286,2.286,0,0,1,.775.1l.127-.758a2.843,2.843,0,0,0-.838-.1,2.357,2.357,0,0,0-2.484,2.226l-.259,1.516h-1.6l-.129.709h1.6ZM121.529,73.6h.887l.791-4.469a3.262,3.262,0,0,1,3.274-2.823,6.633,6.633,0,0,1,.775.032l.161-.822a2.911,2.911,0,0,0-.531-.048,3.711,3.711,0,0,0-3.323,1.839H123.5l.306-1.727h-.855Zm-7.936-4.533c.017-.048.08-.5.1-.549a2.865,2.865,0,0,1,2.758-2.371c1.355,0,1.9.71,1.9,1.774a7.526,7.526,0,0,1-.146,1.145Zm1.661,4.743a4.608,4.608,0,0,0,3.146-1.082l-.323-.58a4.6,4.6,0,0,1-2.661.9c-1.323,0-2.162-.643-2.162-1.805a12.411,12.411,0,0,1,.225-1.532h5.485a12.9,12.9,0,0,0,.274-1.937c0-1.564-1.048-2.371-2.646-2.371a3.85,3.85,0,0,0-3.887,3.421,16.812,16.812,0,0,0-.371,2.547c0,1.677,1.258,2.436,2.919,2.436m-9.291-.759A1.913,1.913,0,0,1,103.98,71a3.06,3.06,0,0,1,.048-.533l.29-1.644a3.116,3.116,0,0,1,2.855-2.662c1.161,0,1.871.548,1.871,1.563a4.348,4.348,0,0,1-.032.452l-.484,2.726a2.576,2.576,0,0,1-2.564,2.145m-3.936,3.678h.9l.823-4.581h.048a2.137,2.137,0,0,0,2.162,1.646,3.439,3.439,0,0,0,3.484-3.018c.048-.241.435-2.435.484-2.678a3.48,3.48,0,0,0,.049-.564,2.114,2.114,0,0,0-2.387-2.147,3.636,3.636,0,0,0-2.937,1.631h-.048l.258-1.436h-.854Z" transform="translate(-25.233 -7.389)"/><path d="M182.933,52.818c1.565,0,3.289-.661,3.289-2.549,0-1.177-1.194-1.661-2.629-2.226-.935-.371-1.483-.71-1.483-1.387,0-.952.87-1.533,1.982-1.533a3.766,3.766,0,0,1,2.146.661l.533-.58a3.871,3.871,0,0,0-2.566-.79c-1.887,0-2.935,1.015-2.935,2.322,0,1.048.71,1.516,2.29,2.145,1.082.42,1.774.79,1.774,1.5,0,1.29-1.275,1.725-2.338,1.725a3.418,3.418,0,0,1-2.42-.919l-.565.565a3.8,3.8,0,0,0,2.921,1.064m-10.372-4.726c.015-.048.08-.5.1-.548a2.866,2.866,0,0,1,2.759-2.371c1.354,0,1.9.71,1.9,1.774a7.72,7.72,0,0,1-.146,1.145Zm1.66,4.742a4.616,4.616,0,0,0,3.146-1.08l-.322-.581a4.607,4.607,0,0,1-2.663.9c-1.322,0-2.161-.645-2.161-1.807a12.441,12.441,0,0,1,.225-1.532h5.486a12.814,12.814,0,0,0,.273-1.935c0-1.565-1.048-2.372-2.645-2.372a3.849,3.849,0,0,0-3.887,3.42A16.512,16.512,0,0,0,171.3,50.4c0,1.678,1.259,2.435,2.918,2.435m-6.759-.129a5.414,5.414,0,0,0,1.179-.145l.112-.694a7.4,7.4,0,0,1-.935.08c-.582,0-.969-.241-.969-.789a2.839,2.839,0,0,1,.032-.354l1.711-9.7h-.9L166,50.737a3.8,3.8,0,0,0-.049.6c0,.856.5,1.371,1.516,1.371m-8.806-.645c-1.147,0-1.774-.628-1.774-1.58,0-.129.015-.291.03-.435l.485-2.727a2.521,2.521,0,0,1,2.515-2.145,1.913,1.913,0,0,1,2.033,2,3.413,3.413,0,0,1-.048.565l-.274,1.6a3.28,3.28,0,0,1-2.967,2.725m-.324.774a3.749,3.749,0,0,0,2.985-1.822l.032.017-.291,1.6h.855l1.419-8.017h-.871l-.257,1.42h-.049a2.151,2.151,0,0,0-2.258-1.6,3.393,3.393,0,0,0-3.436,3c-.033.258-.437,2.436-.469,2.694a2.283,2.283,0,0,0-.063.565,2.118,2.118,0,0,0,2.4,2.144m-12.291-.209h.887l.856-4.742a3.223,3.223,0,0,1,2.984-2.678c.952,0,1.582.4,1.582,1.4a6.376,6.376,0,0,1-.1.758l-.935,5.258h.9l1-5.693a4.356,4.356,0,0,0,.063-.646,1.865,1.865,0,0,0-2.082-1.87,3.8,3.8,0,0,0-3.112,1.741l-.05-.015.275-1.533h-.854c-.275,1.6-1.145,6.421-1.42,8.017m-6.436-.548c-1.322,0-1.984-.661-1.984-1.711a2.092,2.092,0,0,1,.064-.628l.371-2.161a2.654,2.654,0,0,1,2.758-2.387c1.308,0,1.984.646,1.984,1.709a3.908,3.908,0,0,1-.065.6l-.37,2.177a2.648,2.648,0,0,1-2.759,2.4m-.1.757a3.645,3.645,0,0,0,3.759-3.161l.354-2.1a4.564,4.564,0,0,0,.08-.791c0-1.548-1.08-2.355-2.741-2.355a3.665,3.665,0,0,0-3.806,3.161l-.388,2.162a3.905,3.905,0,0,0-.064.742c0,1.581,1.144,2.338,2.806,2.338M133.847,42.9h.889l.305-1.629h-.9Zm-1.709,9.727h.887l1.419-8.017h-.887Zm-4.517.129a5.531,5.531,0,0,0,1.516-.209l.129-.775a5.7,5.7,0,0,1-1.275.176c-.71,0-1.1-.176-1.1-.789a1.565,1.565,0,0,1,.048-.354l.952-5.453h2.355l.113-.726h-2.338l.451-2.548h-.9l-.452,2.548h-1.565l-.129.726h1.581l-1.015,5.695a3.8,3.8,0,0,0-.033.419c0,1.016.823,1.29,1.662,1.29m-9.372-.693c-1.145,0-1.774-.628-1.774-1.58,0-.129.017-.291.032-.435l.484-2.727a2.52,2.52,0,0,1,2.517-2.145,1.912,1.912,0,0,1,2.032,2,3.416,3.416,0,0,1-.048.565l-.274,1.6a3.28,3.28,0,0,1-2.969,2.725m-.322.774a3.747,3.747,0,0,0,2.984-1.822l.032.017-.29,1.6h.855l1.42-8.017h-.871l-.258,1.42h-.049a2.151,2.151,0,0,0-2.258-1.6,3.4,3.4,0,0,0-3.436,3c-.032.258-.436,2.436-.468,2.694a2.254,2.254,0,0,0-.064.565,2.118,2.118,0,0,0,2.4,2.144m-12.292-.209h.888l.855-4.742a3.224,3.224,0,0,1,2.984-2.678c.951,0,1.581.4,1.581,1.4a6.508,6.508,0,0,1-.1.758l-.935,5.258h.9l1-5.693a4.187,4.187,0,0,0,.064-.646,1.864,1.864,0,0,0-2.081-1.87,3.806,3.806,0,0,0-3.113,1.741l-.048-.015.274-1.533h-.854c-.274,1.6-1.146,6.421-1.42,8.017" transform="translate(-26.518)"/><path d="M59.724,69.368a6.917,6.917,0,0,1-.107.96l-1.3,7.4H56.8L58,70.925a7.959,7.959,0,0,0,.128-1c0-1.216-.768-1.77-2-1.77A3.9,3.9,0,0,0,52.471,71.5l-1.109,6.23H49.848c.256-1.6,1.6-9.088,1.877-10.687h1.451l-.32,1.877h.064a4.859,4.859,0,0,1,3.945-2.11,2.575,2.575,0,0,1,2.859,2.559M49.486,54.357a6.982,6.982,0,0,1-.107.96l-1.3,7.4H46.564l1.194-6.8a7.99,7.99,0,0,0,.128-1c0-1.216-.767-1.77-2-1.77a3.9,3.9,0,0,0-3.647,3.349l-1.109,6.228H39.61c.256-1.6,1.6-9.087,1.877-10.686h1.45l-.319,1.877h.064A4.86,4.86,0,0,1,46.628,51.8a2.575,2.575,0,0,1,2.858,2.559m19.5-7.705h-32.1l-5.7,35.085h5.275l2.6-14.695h1.472l-.321,1.748h.064A4.785,4.785,0,0,1,44,66.809c2,0,3.285,1.107,3.285,2.942a3.507,3.507,0,0,1-.086.811c-.064.469-.512,2.88-.576,3.327a4.707,4.707,0,0,1-4.778,4.094A2.78,2.78,0,0,1,39.077,76h-.064L37.97,81.737H63.28ZM39.8,71.329,39.4,73.611c-.021.214-.064.427-.064.641a2.349,2.349,0,0,0,2.5,2.452,3.17,3.17,0,0,0,3.221-2.666l.619-3.39a4.879,4.879,0,0,0,.042-.554c0-1.3-.938-1.985-2.389-1.985a3.8,3.8,0,0,0-3.519,3.22" transform="translate(0 -1.975)"/></g></svg>