<svg xmlns="http://www.w3.org/2000/svg" width="44.032" height="42.975" viewBox="0 0 44.032 42.975"><defs><style>.a{fill:#b19678;}.b{fill:#d03546;}.c{fill:#45545a;}.d{fill:#c0c3c5;}</style></defs><g transform="translate(-8.504 -8.504)"><g transform="translate(8.504 36.245)"><path class="a" d="M8.5,109.1V97.8h1.941v4.18h.031l2.035-4.18h1.941l-2.1,4.211,2.364,7.092H12.747l-1.581-5.26h-.031l-.689,1.252V109.1Z" transform="translate(-8.504 -97.798)"/><path class="a" d="M31.438,97.8h1.941v8.532q0,1.237,1.033,1.237t1.034-1.237V97.8h1.941v8.454a2.982,2.982,0,1,1-5.949,0Z" transform="translate(-24.313 -97.798)"/><path class="a" d="M55.547,109.1V97.8h1.941v9.612h3.053V109.1Z" transform="translate(-40.932 -97.798)"/><path class="a" d="M73.037,99.489H71.158V97.8h5.7v1.691H74.979V109.1H73.037Z" transform="translate(-51.693 -97.798)"/><path class="a" d="M93.383,97.8h1.941v8.532q0,1.237,1.033,1.237t1.033-1.237V97.8h1.941v8.454a2.982,2.982,0,1,1-5.949,0Z" transform="translate(-67.014 -97.798)"/><path class="a" d="M119.568,109.1h-1.941V97.8h2.724a3.507,3.507,0,0,1,2.458.767,3.373,3.373,0,0,1,.83,2.567,5.059,5.059,0,0,1-.117,1.174,3.079,3.079,0,0,1-.313.822,1.988,1.988,0,0,1-.932.853l1.644,5.12h-1.973l-1.378-4.681a3.4,3.4,0,0,1-.462.039c-.183.006-.363.008-.54.008Zm0-6.231h.689a2.44,2.44,0,0,0,.665-.079.885.885,0,0,0,.446-.282,1.259,1.259,0,0,0,.25-.54,3.773,3.773,0,0,0,.079-.838,2.106,2.106,0,0,0-.329-1.37,1.433,1.433,0,0,0-1.111-.368h-.689Z" transform="translate(-83.726 -97.798)"/></g><g transform="translate(16.599 22.298)"><path class="b" d="M38.547,55.81a2.01,2.01,0,0,0-.131-.595,1.1,1.1,0,0,0-.247-.378.916.916,0,0,0-.317-.2.953.953,0,0,0-.324-.062.889.889,0,0,0-.711.286,1.2,1.2,0,0,0-.247.811,1.483,1.483,0,0,0,.286.88,5.291,5.291,0,0,0,.718.8q.432.4.943.811a7.5,7.5,0,0,1,.942.9,4.831,4.831,0,0,1,.718,1.089,3.088,3.088,0,0,1,.286,1.351,3.151,3.151,0,0,1-.224,1.228,2.53,2.53,0,0,1-.618.9,2.581,2.581,0,0,1-.958.548,3.908,3.908,0,0,1-1.228.185,2.76,2.76,0,0,1-1.189-.247,2.619,2.619,0,0,1-.888-.672,3.125,3.125,0,0,1-.564-.981,4.058,4.058,0,0,1-.232-1.189l1.822-.262a2.43,2.43,0,0,0,.371,1.266.929.929,0,0,0,.772.417,1.2,1.2,0,0,0,.8-.263.937.937,0,0,0,.309-.757,1.754,1.754,0,0,0-.286-.989,4.647,4.647,0,0,0-.718-.834q-.432-.4-.942-.8a7.642,7.642,0,0,1-.942-.88,4.433,4.433,0,0,1-.718-1.081,3.243,3.243,0,0,1-.286-1.405,2.678,2.678,0,0,1,.772-2.062,3.1,3.1,0,0,1,2.193-.718,2.624,2.624,0,0,1,1.05.2,2.31,2.31,0,0,1,.8.564,2.968,2.968,0,0,1,.541.857,3.8,3.8,0,0,1,.27,1.081Z" transform="translate(-34.562 -52.906)"/><path class="b" d="M58.224,55.071H56.371V53.4h5.622v1.668H60.14v9.483H58.224Z" transform="translate(-49.596 -53.249)"/><path class="b" d="M76.067,64.554H74.214L76.268,53.4h2.379L80.7,64.554H78.847l-.34-2.471h-2.1Zm.618-4.139h1.544l-.756-4.788h-.031Z" transform="translate(-61.895 -53.249)"/><path class="b" d="M123.231,55.071h-1.853V53.4H127v1.668h-1.853v9.483h-1.915Z" transform="translate(-94.406 -53.249)"/><path class="b" d="M100.787,64.554H98.872V53.4h2.687a3.458,3.458,0,0,1,2.425.757,3.325,3.325,0,0,1,.819,2.533,4.986,4.986,0,0,1-.116,1.158,3.033,3.033,0,0,1-.309.811,1.989,1.989,0,0,1-.432.533,2.033,2.033,0,0,1-.487.309l1.622,5.05h-1.946l-1.359-4.618a3.474,3.474,0,0,1-.456.039q-.27.008-.533.008Zm0-6.147h.68a2.415,2.415,0,0,0,.656-.077.874.874,0,0,0,.44-.278,1.247,1.247,0,0,0,.247-.533,3.733,3.733,0,0,0,.077-.826,2.079,2.079,0,0,0-.325-1.351,1.413,1.413,0,0,0-1.1-.363h-.68Z" transform="translate(-78.893 -53.249)"/></g><g transform="translate(28.242 8.511)"><path class="c" d="M72.039,19.832V8.528h1.8L76.2,14.994h.031V8.528h1.754v11.3H76.3l-2.474-7.061h-.031v7.061Z" transform="translate(-72.039 -8.528)"/><path class="c" d="M96.309,19.832V8.528h5.2v1.691H98.25v2.912h2.505v1.691H98.25v3.319h3.476v1.691Z" transform="translate(-88.769 -8.528)"/><path class="c" d="M118.028,8.528h1.941v8.533q0,1.237,1.033,1.237t1.033-1.237V8.528h1.941v8.454a2.98,2.98,0,0,1-.791,2.239,3.493,3.493,0,0,1-4.368,0,2.98,2.98,0,0,1-.79-2.239Z" transform="translate(-103.741 -8.528)"/></g><path class="d" d="M9.785,33.6,8.5,33.6V8.5H25.588V9.759H9.785Z"/><path class="d" d="M52.536,51.479H8.5V50.158H51.215V8.5h1.321Z"/></g></svg>