<svg xmlns="http://www.w3.org/2000/svg" width="131.546" height="25" viewBox="0 0 131.546 25"><defs><style>.a{fill:#2bad29;}.b{fill:#2ad7bf;}.c{fill:#00b7da;}.d{fill:#ffcd37;}.e{fill:none;}</style></defs><g transform="translate(-958.076 309.372)"><g transform="translate(987.833 -309.372)"><path d="M1031.5-292.375h5.111l3.464,4.779,3.448-4.779h5.023l-5.953,8.248,6.731,9.288h-5.107l-4.172-5.751-4.148,5.751h-5.025l6.657-9.229Z" transform="translate(-1030.87 299.323)"/><path d="M1090.779-293.027h4.4v17.536h-4.4v-1.853a8.672,8.672,0,0,1-2.584,1.76,7.186,7.186,0,0,1-2.807.544,7.811,7.811,0,0,1-5.877-2.636,9.2,9.2,0,0,1-2.479-6.552,9.424,9.424,0,0,1,2.4-6.656,7.638,7.638,0,0,1,5.826-2.593,7.422,7.422,0,0,1,2.961.594,8.093,8.093,0,0,1,2.56,1.791Zm-4.624,3.611a4.44,4.44,0,0,0-3.389,1.442,5.183,5.183,0,0,0-1.35,3.7,5.242,5.242,0,0,0,1.373,3.739,4.435,4.435,0,0,0,3.381,1.47,4.539,4.539,0,0,0,3.436-1.441,5.279,5.279,0,0,0,1.365-3.783,5.114,5.114,0,0,0-1.365-3.706A4.579,4.579,0,0,0,1086.155-289.416Z" transform="translate(-1058.162 299.975)"/><g transform="translate(42.158 0.065)"><path d="M1134-309.214h2.273v24.48H1134Z" transform="translate(-1134 309.214)"/><path d="M1166.612-293.192v17.662h-2.241v-3.035a9.73,9.73,0,0,1-3.205,2.613,8.678,8.678,0,0,1-3.888.877,8.626,8.626,0,0,1-6.4-2.72,9.117,9.117,0,0,1-2.654-6.615,8.95,8.95,0,0,1,2.678-6.526,8.735,8.735,0,0,1,6.445-2.711,8.335,8.335,0,0,1,3.937.925,8.96,8.96,0,0,1,3.092,2.776v-3.247Zm-9.083,1.737a6.854,6.854,0,0,0-3.5.932,6.835,6.835,0,0,0-2.554,2.619,7.166,7.166,0,0,0-.948,3.567,7.188,7.188,0,0,0,.956,3.568,6.967,6.967,0,0,0,2.571,2.651,6.711,6.711,0,0,0,3.462.949,7.094,7.094,0,0,0,3.535-.941,6.577,6.577,0,0,0,2.57-2.546,7.267,7.267,0,0,0,.9-3.616,7.029,7.029,0,0,0-2.018-5.125A6.688,6.688,0,0,0,1157.529-291.456Z" transform="translate(-1142.406 300.011)"/><path d="M1204.674-284.734v-24.48h2.272v9.854a9.592,9.592,0,0,1,3.2-2.622,8.671,8.671,0,0,1,3.876-.869,8.612,8.612,0,0,1,6.4,2.719,9.1,9.1,0,0,1,2.651,6.6,8.974,8.974,0,0,1-2.676,6.543,8.719,8.719,0,0,1-6.437,2.711,8.24,8.24,0,0,1-3.909-.925,9.133,9.133,0,0,1-3.1-2.776v3.247Zm9.091-1.737a6.826,6.826,0,0,0,3.5-.933,6.831,6.831,0,0,0,2.551-2.622,7.187,7.187,0,0,0,.948-3.571,7.232,7.232,0,0,0-.956-3.588,6.962,6.962,0,0,0-2.567-2.654,6.669,6.669,0,0,0-3.442-.95,7.074,7.074,0,0,0-3.539.95,6.621,6.621,0,0,0-2.575,2.557,7.292,7.292,0,0,0-.9,3.62,7.044,7.044,0,0,0,2.017,5.13A6.672,6.672,0,0,0,1213.765-286.47Z" transform="translate(-1175.784 309.214)"/><path d="M1264.574-291.26l-1.462,1.509a5.254,5.254,0,0,0-3.564-1.77,2.691,2.691,0,0,0-1.9.731,2.257,2.257,0,0,0-.789,1.7,2.527,2.527,0,0,0,.651,1.64,9.135,9.135,0,0,0,2.733,1.867,10.2,10.2,0,0,1,3.449,2.533,4.614,4.614,0,0,1,.9,2.776,4.981,4.981,0,0,1-1.529,3.685,5.219,5.219,0,0,1-3.821,1.51,6.676,6.676,0,0,1-2.918-.665,6.339,6.339,0,0,1-2.3-1.835l1.429-1.624a4.968,4.968,0,0,0,3.694,1.965,3.327,3.327,0,0,0,2.327-.876,2.711,2.711,0,0,0,.96-2.062,2.646,2.646,0,0,0-.634-1.737,10.227,10.227,0,0,0-2.863-1.883,9.162,9.162,0,0,1-3.254-2.436,4.585,4.585,0,0,1-.862-2.743,4.463,4.463,0,0,1,1.374-3.344,4.786,4.786,0,0,1,3.472-1.331A7.2,7.2,0,0,1,1264.574-291.26Z" transform="translate(-1204.958 300.011)"/></g><path d="M1112.887-309.372a2.1,2.1,0,0,1,1.541.642,2.117,2.117,0,0,1,.638,1.545,2.093,2.093,0,0,1-.638,1.53,2.1,2.1,0,0,1-1.541.641,2.086,2.086,0,0,1-1.523-.641,2.1,2.1,0,0,1-.638-1.53,2.12,2.12,0,0,1,.638-1.545A2.085,2.085,0,0,1,1112.887-309.372Z" transform="translate(-1078.083 309.372)"/></g><g transform="translate(958.076 -309.313)"><path class="a" d="M1011.068-297.132l-4.946,6.585v3.2h4.947Z" transform="translate(-986.481 302.076)"/><path class="b" d="M974.434-268.273H962.967l-4.89,4.925v.013h19.64l4.947-9.854h-4.947Z" transform="translate(-958.077 287.921)"/><path class="c" d="M962.965-289.58l0-11.48,4.917-3.27h0v-4.9h0l-9.807,4.9v19.677l4.89-4.925Z" transform="translate(-958.076 309.227)"/><path class="d" d="M991.9-304.331v6.633l4.946-6.585v-4.944H982.068v4.9Z" transform="translate(-972.261 309.227)"/><path class="e" d="M974.954-297.249h0l-4.917,3.27,0,11.48H981.5l3.283-4.917h0v-9.835Z" transform="translate(-965.147 302.146)"/></g></g></svg>