<svg xmlns="http://www.w3.org/2000/svg" width="100.314" height="28.644" viewBox="0 0 100.314 28.644"><defs><style>.a,.b{fill:#111;}.b{fill-rule:evenodd;}</style></defs><g transform="translate(0 0)"><g transform="translate(31.556 0)"><path class="a" d="M29.32,27.366c-8.16.42-16.627-3.146-16.029-12.731C13.832,5.955,21.481.9,30.894,1.25c7.5.28,10.1,2.95,11.5,4.257l.467-.019a5.99,5.99,0,0,1,2.558-1.755A29.06,29.06,0,0,0,31.336.012C17.992-.3,8.026,5.447,7.8,14.79c-.13,5.441,3.009,9.578,8.425,11.839-5.426-.016-6.909-.056-10.19-.1.367-4.206.863-8.843,1.777-15.909.465-3.6,1.272-6.878,2-10.569C6.58.12,5.724.143,3.849.107c0,.9-.012,1.194-.027,1.926C2.884,14.064,2.235,17.309,0,28.6c3.853-.115,6.846-.189,10.683-.178,2.552.007,5.173-.16,7.735-.088.568.035,2.054-.013,4.916.112,1.855.137,2.651.149,2.651.149a29.671,29.671,0,0,0,3.41-.012c10.081-.348,13.5-3.535,15.556-4.729l-2.614-1.792-.572.05C40.583,23.259,37.534,26.942,29.32,27.366Z" transform="translate(0 0)"/></g><g transform="translate(0 10.399)"><path class="b" d="M528.628,98.61a.742.742,0,1,1-.823.738.784.784,0,0,1,.823-.738Zm0,.085a.657.657,0,1,0,.729.653.695.695,0,0,0-.729-.653Zm.4,1.061c-.04,0-.082-.006-.123-.006s-.083,0-.124.006c-.237-.387-.239-.39-.251-.39s-.01,0-.01.033c0,.12.007.313.014.355-.034,0-.071-.006-.108-.006s-.072,0-.108.006c0-.029.014-.151.014-.459a2.916,2.916,0,0,0-.014-.386c.06,0,.122,0,.18,0,.041,0,.1,0,.19,0,.165,0,.269.087.269.208a.237.237,0,0,1-.224.221l.294.419Zm-.429-.781h-.071c0,.149,0,.241,0,.34.061,0,.219,0,.219-.183a.145.145,0,0,0-.143-.157Z" transform="translate(-429.137 -97.836)"/><path class="b" d="M27.667,98.233c0-.94-.071-1.89-.143-2.83a6.992,6.992,0,0,0,1.748,0c-.071.94-.143,1.89-.143,2.83,0,1.836.036,3.125.053,4.2,1.677,0,3.139,0,4.923-.142a.646.646,0,0,0,0,.655c-1.088-.033-2.194-.055-3.282-.055-1.106,0-2.194.021-3.3.055.071-.94.143-1.89.143-2.83V98.233Z" transform="translate(-27.524 -95.261)"/><path class="b" d="M72.056,104.406a3.3,3.3,0,0,0,.513.042,1.759,1.759,0,0,0,.376-.042c-.1.785-.2,2.269-.225,3.5-.025,1.492-1.314,2.429-3.567,2.429-2.478,0-3.58-.776-3.58-2.412,0-.523.063-.911.063-1.332,0-.928-.05-1.7-.075-2.185a5.5,5.5,0,0,0,.651.042,3.637,3.637,0,0,0,.538-.042,23.607,23.607,0,0,0-.15,2.893c0,1.147,0,2.64,2.791,2.64,2.741,0,2.741-1.729,2.741-2.791a20.069,20.069,0,0,0-.075-2.741Z" transform="translate(-58.058 -102.489)"/><path class="b" d="M112.493,106.324c0-.725-.05-1.459-.1-2.185a4.459,4.459,0,0,0,1.227,0c-.05.726-.1,1.459-.1,2.185v1.45c0,.725.05,1.459.1,2.184a4.522,4.522,0,0,0-1.227,0c.05-.725.1-1.459.1-2.184v-1.45Z" transform="translate(-95.655 -102.274)"/><path class="b" d="M127.271,108.659a2.322,2.322,0,0,0,1.978.877c1.114,0,1.79-.548,1.79-1.223,0-1.552-3.943-.886-3.943-2.867,0-.936,1.051-1.594,2.716-1.594a3.726,3.726,0,0,1,1.852.4,2.069,2.069,0,0,0-.338.709h-.15a1.544,1.544,0,0,0-1.489-.793c-.939,0-1.615.43-1.615,1.045,0,1.577,3.943.919,3.943,2.783,0,1.029-1.139,1.9-3.067,1.9a4.025,4.025,0,0,1-2.065-.48,1.851,1.851,0,0,0,.238-.751Z" transform="translate(-107.287 -102.044)"/><path class="b" d="M160.9,103.852c1.227,1.957,3.1,5.027,3.767,5.929a5.257,5.257,0,0,0-1.327,0,22.148,22.148,0,0,0-1.289-2.26c-.538-.009-1.089-.017-1.64-.017-.513,0-1.014.008-1.527.017a18.631,18.631,0,0,0-1.214,2.26,2.572,2.572,0,0,0-.926,0c1.339-1.973,2.641-3.938,3.918-5.929Zm-.413,1.138-1.365,2.143c.438,0,.914.017,1.352.017.463,0,.938-.008,1.4-.017l-1.389-2.143Z" transform="translate(-131.259 -102.044)"/><path class="b" d="M271.767,101.884a10.19,10.19,0,0,1-3.71.622c-3.764,0-6.511-1.431-6.511-3.911s2.747-3.911,6.689-3.911a14.656,14.656,0,0,1,3.87.5,2.631,2.631,0,0,0-.375.852l-.107.022a6.194,6.194,0,0,0-3.389-.973c-2.8,0-4.941,1.082-4.941,3.507s2.14,3.507,4.941,3.507a8.2,8.2,0,0,0,3.621-.907l.072.044-.16.645Z" transform="translate(-215.391 -94.684)"/><path class="b" d="M324.127,106.518c0-.725-.05-1.459-.1-2.175.751.025,1.49.042,2.241.042s1.489-.017,2.228-.042a.881.881,0,0,0,0,.506c-1.051-.051-1.665-.11-3.292-.11-.013.363-.05.658-.05,1.071,0,.438.013.9.013,1.114,1.477,0,2.3-.042,3.042-.085a.945.945,0,0,0-.038.262.881.881,0,0,0,.038.253c-.863-.059-2.44-.076-3.042-.076-.013.2-.013.413-.013,1.223,0,.641.013,1.054.026,1.265,1.114,0,2.591-.008,3.379-.109a.939.939,0,0,0-.038.261.829.829,0,0,0,.038.245c-.738-.025-1.49-.043-2.253-.043s-1.515.017-2.278.043c.05-.734.1-1.468.1-2.193v-1.451Z" transform="translate(-265.549 -102.438)"/><path class="b" d="M357.217,106.527c0-.726-.05-1.46-.1-2.184.475.025.951.042,1.427.042s.951-.042,1.427-.042c1.414,0,2.6.328,2.6,1.332,0,1.088-1.615,1.527-2.566,1.611.613.515,2.7,2.328,3.43,2.876a7.432,7.432,0,0,0-.751-.043,6.949,6.949,0,0,0-.725.043,28.808,28.808,0,0,0-3.242-2.8h-.476v.616c0,.725.051,1.459.1,2.185a4.415,4.415,0,0,0-1.227,0c.05-.726.1-1.46.1-2.185v-1.45Zm1.026.48a6.017,6.017,0,0,0,.839.042c1.026,0,2.391-.286,2.391-1.29,0-.886-1.09-1.1-1.941-1.1-.576,0-.951.025-1.214.042-.038.616-.076,1.224-.076,1.831v.48Z" transform="translate(-292.113 -102.438)"/><path class="b" d="M398.449,103.786c1.226,1.957,3.1,5.026,3.767,5.929a5.168,5.168,0,0,0-1.327,0,22.152,22.152,0,0,0-1.289-2.26c-.538-.008-1.089-.017-1.64-.017-.513,0-1.014.008-1.527.017a18.452,18.452,0,0,0-1.214,2.26,2.532,2.532,0,0,0-.927,0c1.34-1.974,2.641-3.939,3.918-5.929Zm-.414,1.138-1.364,2.143c.438,0,.913.017,1.352.017.464,0,.939-.009,1.4-.017l-1.389-2.143Z" transform="translate(-321.957 -101.991)"/><path class="b" d="M446.618,109.824c-1.9-1.51-4.18-3.129-6.321-4.664-.012.312-.037.818-.037,1.712,0,.725.05,2.5.113,2.842a2.443,2.443,0,0,0-.438-.043,2.993,2.993,0,0,0-.464.043,29.3,29.3,0,0,0,.263-3.669c0-1.063,0-1.881-.037-2.26h.2c2.04,1.493,4.806,3.525,6.334,4.563,0-1.51,0-3.155-.1-4.453a2.451,2.451,0,0,0,.426.042,2.174,2.174,0,0,0,.4-.042c-.075.5-.2,2.167-.2,2.825,0,.86.025,2.724.038,3.1Z" transform="translate(-358.225 -101.991)"/><path class="b" d="M488.791,103.251c2.766,0,4.694,1.1,4.694,3.019s-1.928,3.019-4.694,3.019-4.682-1.1-4.682-3.019,1.928-3.019,4.682-3.019Zm0,.312c-1.953,0-3.455.835-3.455,2.707s1.5,2.707,3.455,2.707,3.467-.835,3.467-2.707-1.5-2.707-3.467-2.707Z" transform="translate(-394.059 -101.561)"/></g></g></svg>