<svg xmlns="http://www.w3.org/2000/svg" width="108.93" height="28.994" viewBox="0 0 108.93 28.994"><defs><style>.a{fill:#960819;}.b{fill:#161615;}</style></defs><g transform="translate(0 0)"><path class="a" d="M-411,82.524V69.946h6.791s.057,0,.156,0a10.012,10.012,0,0,0,1.4-.1,7.212,7.212,0,0,0,1.38-.357,6.612,6.612,0,0,0,1.42-.687,4.841,4.841,0,0,0,.9-.763l.028-.032-.029-.031a4.148,4.148,0,0,0-.712-.569,7.39,7.39,0,0,0-1.449-.737,11.021,11.021,0,0,0-2.214-.539,12.693,12.693,0,0,0-1.36-.112l-6.319,0V53.532l.53,0h7.942c.543.01.9.019.9.019a12.377,12.377,0,0,1,4.475,1.078,8.877,8.877,0,0,1,3.912,4.029,10.019,10.019,0,0,1,.528,6.124,8.421,8.421,0,0,1-1.639,3.242l-.03.033.031.032a8.055,8.055,0,0,1,1.868,4.033,9.042,9.042,0,0,1-.848,5.644,8.665,8.665,0,0,1-5.035,4.173,11.945,11.945,0,0,1-2.074.453c-.565.07-1.6.122-2.637.134H-411Zm3.673-3.517h4.56a10.137,10.137,0,0,0,3.1-.455,5.552,5.552,0,0,0,2.6-1.984,6.345,6.345,0,0,0,.936-3.6,5.5,5.5,0,0,0-.573-2.2l-.027-.048-.044.033c-.006,0-.576.437-1.417.958a9.112,9.112,0,0,1-2.683,1.218,13.486,13.486,0,0,1-1.748.322c-.453.051-.922.076-1.376.1l-.1.005c-.614.035-1.264.052-1.933.052-.741,0-1.239-.022-1.244-.022l-.05,0v5.623Zm1.279-16.4c.662,0,1.3.017,1.911.05l.2.011c.42.024.855.049,1.271.095a13.472,13.472,0,0,1,1.748.324,9.118,9.118,0,0,1,2.682,1.142,11.272,11.272,0,0,1,1.416,1.031l.045.04.029-.052a5.544,5.544,0,0,0,.574-2.2,6.672,6.672,0,0,0-.434-2.687,4.631,4.631,0,0,0-.5-.912,5.566,5.566,0,0,0-2.6-1.984,8.724,8.724,0,0,0-1.708-.415,11.749,11.749,0,0,0-1.485-.121h-4.47v5.706l.05,0c.005,0,.513-.022,1.267-.022Z" transform="translate(411 -53.53)"/><path class="b" d="M-147.529,122.941a4.529,4.529,0,0,0-3.189.907v-4.453h-1.094v13.457h1.056v-.666a4.546,4.546,0,0,0,3.227.912c2.384,0,3.751-.946,3.751-2.594v-4.968c0-1.649-1.367-2.595-3.751-2.595Zm-3.189,7.278v-4.4c0-1.444,1.024-2.146,3.132-2.146,1.751,0,2.715.668,2.715,1.881v4.93c0,1.212-.964,1.88-2.715,1.88-2.107,0-3.132-.7-3.132-2.146Z" transform="translate(177.034 -112.986)"/><path class="b" d="M-48.7,156.414a5.144,5.144,0,0,0-3.852,1.517V156.6H-53.57v9.665h1.094v-6.311c0-1.138,1.372-2.715,3.947-2.715.124,0,.367.017.392.019l.1.008v-.828l-.085-.008c-.25-.019-.365-.019-.576-.019Z" transform="translate(88.353 -146.402)"/><path class="b" d="M17.258,155.831c-2.627,0-4.074.942-4.074,2.652v4.854c0,1.71,1.447,2.651,4.074,2.651,2.59,0,4.017-.942,4.017-2.651v-.623H20.181v.585c0,1.285-.983,1.937-2.923,1.937s-2.98-.67-2.98-1.937V160.85h7.054v-2.367c0-1.71-1.447-2.652-4.074-2.652Zm0,.733c1.95,0,2.98.67,2.98,1.937v1.615h-5.96V158.5c0-1.267,1.031-1.937,2.98-1.937Z" transform="translate(28.095 -145.876)"/><path class="b" d="M120.158,165.375c0,1.444-1.006,2.146-3.075,2.146-1.221,0-2.677-.326-2.677-1.88v-7.278h-1.094v7.317c0,1.649,1.353,2.594,3.714,2.594a4.432,4.432,0,0,0,3.17-.907v.66h1.056v-9.665h-1.093v7.013Z" transform="translate(-62.29 -148.161)"/><path class="b" d="M218.975,155.831a4.653,4.653,0,0,0-3.226.914v-.668h-1.056v9.665h1.093v-7.013c0-1.444,1.025-2.146,3.132-2.146,1.751,0,2.715.668,2.715,1.88v7.278h1.093v-7.316c0-1.649-1.367-2.595-3.751-2.595Z" transform="translate(-153.804 -145.876)"/><path class="b" d="M317.227,168.027h1.113v-9.665h-1.113v9.665Z" transform="translate(-246.36 -148.161)"/><path class="b" d="M353.909,155.831a4.655,4.655,0,0,0-3.227.914v-.668h-1.056v9.665h1.093v-7.013c0-1.444,1.025-2.146,3.132-2.146,1.75,0,2.714.668,2.714,1.88v7.278h1.094v-7.316c0-1.649-1.367-2.595-3.751-2.595Z" transform="translate(-275.607 -145.876)"/><path class="b" d="M457.559,156.743a4.545,4.545,0,0,0-3.227-.912c-2.384,0-3.752.946-3.752,2.595v4.968c0,1.649,1.367,2.594,3.752,2.594a4.809,4.809,0,0,0,3.188-.89v1.993c0,1.244-.92,1.9-2.733,1.937h-.19c-2.535,0-2.828-1.106-2.828-1.937v-.281h-1.094v.319c0,1.735,1.356,2.652,3.922,2.652,2.591,0,4.017-.942,4.017-2.652V156.077h-1.056v.666Zm-5.885,6.631v-4.93c0-1.213.964-1.88,2.715-1.88,2.107,0,3.131.7,3.131,2.146v4.4c0,1.444-1.024,2.146-3.131,2.146-1.751,0-2.715-.668-2.715-1.88Z" transform="translate(-366.736 -145.876)"/><path class="b" d="M554.039,155.831c-2.628,0-4.074.942-4.074,2.652v4.854c0,1.71,1.447,2.651,4.074,2.651,2.59,0,4.016-.942,4.016-2.651v-.623h-1.093v.585c0,1.285-.984,1.937-2.923,1.937s-2.98-.67-2.98-1.937V160.85h7.054v-2.367c0-1.71-1.446-2.652-4.074-2.652Zm0,.733c1.949,0,2.98.67,2.98,1.937v1.615h-5.96V158.5c0-1.267,1.031-1.937,2.98-1.937Z" transform="translate(-456.449 -145.876)"/><path class="b" d="M656.976,156.433c-.25-.019-.365-.019-.576-.019a5.06,5.06,0,0,0-3.853,1.522V156.6H651.53v9.665h1.093v-6.311c0-1.138,1.372-2.715,3.948-2.715.124,0,.366.017.391.019l.1.008v-.828l-.085-.008Z" transform="translate(-548.13 -146.402)"/></g></svg>