<svg xmlns="http://www.w3.org/2000/svg" width="47.262" height="44.179" viewBox="0 0 47.262 44.179"><defs><style>.a{fill:none;}.b{fill:#fff;}.c{fill:#21c633;}.d{fill:#62f056;}</style></defs><g transform="translate(-273.325 -172.698)"><g transform="translate(273.325 172.698)"><path class="a" d="M317.958,178.174l0-.947-1.384.195Z" transform="translate(-298.242 -161.561)"/><path class="a" d="M302.912,183.049l.757-.106,1.259-.177,3.322-.467,1.644-.231-1.644.231Z" transform="translate(-292.147 -163.721)"/><rect class="a" height="9.345" transform="matrix(0.478, -0.878, 0.878, 0.478, 21.83, 11.711)"/><path class="a" d="M302.167,187.26l.006-3.318h0Z" transform="translate(-291.815 -164.557)"/><path class="a" d="M337.673,190.062l0-1.405,0-2.272,0-.861.005-2.811-.007,3.672Z" transform="translate(-307.652 -164.008)"/><path class="a" d="M346.381,176.356l-2.1.3,2.1-.3,2.973-.418h0Z" transform="translate(-310.597 -160.987)"/><path class="b" d="M358.392,214.359l5.744-.807.012-6.2-5.744.807Z" transform="translate(-316.893 -174.998)"/><path class="c" d="M353.748,208.786v.008l-5.738.806,0,2.268,5.754,3.13.012-6.2Z" transform="translate(-312.261 -175.638)"/><path class="d" d="M358.371,205.623l.023.013,5.744-.807-5.76-3.133Z" transform="translate(-316.884 -172.475)"/><path class="c" d="M329.376,184.431l.007-3.677.007-3.672,0-2.528-8.209-4.466-.007,3.659-2.105.3,0,.947,2.13,1.159h0l0,2.272,5.737,3.121-.012,6.2-.012,6.193-.008,4.083,2.445,1.33.012-6.2.006-3.094.006-3.1Z" transform="translate(-299.355 -158.377)"/><path class="c" d="M353.786,188.319l0-1.891-2.765.389-2.973.418,0,2.276,5.731,3.118Z" transform="translate(-312.279 -165.666)"/><path class="d" d="M353.772,195.11l-5.731-3.118-.006,3.064,0,.859,2.437-.342Z" transform="translate(-312.273 -168.148)"/><path class="b" d="M349.117,193.83v-.008l.007-3.928v-.367l5.744-.807.012-6.2.011-6.2-5.744.808,0-1.891-2.765.388-2.973.418-2.105.3-2.2.309-.283.039-1.157.163,0,2.528-.006,2.811,0,.861,0,2.271,0,1.405,0,2.523-.006,3.1-.005,3.094-.012,6.2,5.744-.807.008-3.932,0-2.268Zm-5.725-6.247.006-3.064,0-2.276,2.973-.418,2.765-.388,0,1.891-.008,4.309-3.3.464-2.437.342Z" transform="translate(-307.63 -160.674)"/><path class="b" d="M337.665,195.979l0,2.523-.006,3.1.006-3.1Z" transform="translate(-307.644 -169.925)"/><path class="b" d="M337.7,180.678l0-2.528h0Z" transform="translate(-307.663 -161.973)"/><path class="d" d="M331.1,172.681l1.157-.163,1.259-.177,1.223-.172,2.1-.3,2.973-.418h0l2.765-.389,0,1.891,5.744-.807-7.436-4.045v.208l-5.744.807-5.942-3.232-2.669.375-3.639.511,0,1.44Z" transform="translate(-301.057 -156.504)"/><path class="d" d="M339.795,177.576l.283-.04,2.2-.309-1.223.172Z" transform="translate(-308.598 -161.561)"/><path class="c" d="M293.815,191.825l.007-3.928,0-2.272,0-.861,0-2.021.006-3.318-10.312-5.61-.012,6.2-.012,6.2-.011,6.193-.012,6.2,10.312,5.61.012-6.2Z" transform="translate(-283.48 -160.04)"/><path class="d" d="M303.233,175.607l-1.383-.752-2.254.317-6.8-3.7-3.49.491-5.744.807,10.312,5.61h0l.406-.057,5.338-.75,1.644-.231.778-.109,1.189-.167,2.133-.3h0Z" transform="translate(-283.517 -158.995)"/><path class="c" d="M318,214.649l-5.518.776,0,2.272,5.737,3.121.011-6.045Z" transform="translate(-296.414 -178.253)"/><path class="c" d="M322.672,214.591l-.226.032.226.123Z" transform="translate(-300.86 -178.227)"/><path class="c" d="M312.523,193.027l0,2.272,3.607,1.962,2.13,1.159.012-6.2-2.133.3Z" transform="translate(-296.432 -168.249)"/><path class="d" d="M328.64,188.25l-5.737-3.121-.007,3.928Z" transform="translate(-301.061 -165.086)"/><path class="d" d="M312.513,197.778l-.007,3.928,3.611-.507,2.133-.3-2.13-1.159Z" transform="translate(-296.427 -170.728)"/><path class="b" d="M319.351,192.62l.012-6.2-5.744.807-.012,6.2-2.133.3-3.611.507.007-3.928,0-2.272,3.611-.508,2.133-.3.007-3.928,0-2.272-2.133.3-1.967.276-1.644.231-3.322.467-1.259.177-.757.106-.406.057-.006,3.318-.005,2.882-.011,6.2-.012,6.193-.011,6.2h0l5.744-.807.007-3.928,0-2.272,5.518-.776.226-.032v.155l-.011,6.045,5.744-.807,0-2.117.008-4.083Z" transform="translate(-291.783 -163.257)"/><path class="b" d="M302.107,212.519l.012-6.193-.012,6.193-.011,6.2h0Z" transform="translate(-291.783 -174.541)"/><path class="b" d="M302.137,201.334l.011-6.2,0,2.272Z" transform="translate(-291.802 -169.549)"/><path class="b" d="M302.158,192.814l.005-2.882,0,2.021Z" transform="translate(-291.811 -167.228)"/><path class="b" d="M316.293,181.736l-.778.109,1.967-.276h0Z" transform="translate(-297.769 -163.498)"/><path class="b" d="M319.066,181.328l2.133-.3-2.133.3Z" transform="translate(-299.353 -163.257)"/><path class="b" d="M345.008,163.9l0,2.178,5.744-.807v-.208l.011-5.992-5.744.807Z" transform="translate(-310.922 -153.465)"/><path class="c" d="M336.7,160.037l.008-4.022-10.312-5.61-.012,6.2,4.371,2.378,5.942,3.232Z" transform="translate(-302.619 -149.598)"/><path class="d" d="M342.466,154.558l-10.312-5.61-5.744.807,10.312,5.61Z" transform="translate(-302.628 -148.948)"/><path class="b" d="M312.517,166.308l-.009,4.658,0,1.542,2.254-.317,1.384-.195,2.105-.3.007-3.659,0-1.44,0-1.1Z" transform="translate(-296.427 -156.331)"/><path class="c" d="M293.9,156.832l-.012,6.2,3.513,1.911,6.8,3.7,0-1.542.009-4.658Z" transform="translate(-288.124 -152.465)"/><path class="d" d="M309.968,160.984l-10.312-5.61-5.744.807,10.312,5.61Z" transform="translate(-288.133 -151.815)"/></g></g></svg>