<svg xmlns="http://www.w3.org/2000/svg" width="151" height="21.742" viewBox="0 0 151 21.742"><defs><style>.a{fill:#bababa;}.b,.e{fill:#e44200;}.b,.c{fill-rule:evenodd;}.c,.d{fill:#161615;}</style></defs><g transform="translate(0 0)"><path class="a" d="M80.352,246.528s1.684-9.716,9.722-9.8l11.55,0s-1.684,9.716-9.722,9.8l-11.55,0Z" transform="translate(-68.655 -236.409)"/><path class="a" d="M12,314.078s1.684-9.716,9.722-9.8l11.55,0s-1.684,9.716-9.722,9.8l-11.55,0Z" transform="translate(-12 -292.4)"/><path class="b" d="M878.078,237.362a1.4,1.4,0,1,0,1.4-1.383,1.39,1.39,0,0,0-1.4,1.383Zm.253,0a1.146,1.146,0,1,1,1.149,1.193,1.145,1.145,0,0,1-1.149-1.193Zm.606.818h.253v-.7h.267l.442.7h.272l-.465-.718a.418.418,0,0,0,.428-.442c0-.312-.182-.465-.569-.465h-.628v1.625Zm.253-1.42h.334c.171,0,.357.033.357.249,0,.257-.2.268-.428.268h-.264v-.517Z" transform="translate(-729.874 -235.792)"/><path class="c" d="M622.534,340.749c.011,1.176.582,1.983,1.687,1.983s1.675-.808,1.687-1.983a1.709,1.709,0,1,0-3.373,0Zm1.687-1.654c.9,0,1.307.841,1.307,1.654s-.407,1.654-1.307,1.654-1.308-.841-1.308-1.654.407-1.654,1.308-1.654Z" transform="translate(-518.059 -320.991)"/><path class="c" d="M650.064,339.48h.39c.522,0,.967.038.967.665,0,.533-.511.7-.955.7h-.4V339.48Zm-.379,3.5h.379v-1.808h.313c.362,0,.527.017.747.511l.555,1.3h.417l-.654-1.483c-.12-.258-.187-.423-.494-.462v-.011a.9.9,0,0,0,.852-.885c0-.7-.445-.994-1.126-.994h-.989v3.835Z" transform="translate(-540.564 -321.309)"/><path class="d" d="M668.27,342.985h.379v-3.5h1.132v-.33h-2.642v.33h1.132v3.5Z" transform="translate(-555.031 -321.309)"/><path class="d" d="M688.586,342.985h.379v-1.807H690.9v1.807h.379V339.15H690.9v1.7h-1.939v-1.7h-.379v3.834Z" transform="translate(-572.808 -321.309)"/><path class="c" d="M711.8,340.749c.011,1.176.583,1.983,1.687,1.983s1.675-.808,1.686-1.983a1.709,1.709,0,1,0-3.373,0Zm1.687-1.654c.9,0,1.307.841,1.307,1.654s-.406,1.654-1.307,1.654-1.308-.841-1.308-1.654.407-1.654,1.307-1.654Z" transform="translate(-592.048 -320.991)"/><path class="c" d="M738.887,342.985h.379v-1.659h.527a1.089,1.089,0,0,0,1.225-1.088,1.037,1.037,0,0,0-1.187-1.088h-.945v3.835Zm.379-3.5h.615a.689.689,0,0,1,.758.758c0,.692-.538.758-1.109.758h-.264V339.48Z" transform="translate(-614.502 -321.309)"/><path class="c" d="M753.75,342.985h.368l.412-1.027h1.934l.412,1.027h.4l-1.522-3.835h-.428l-1.571,3.835Zm2.588-1.357h-1.665l.835-2.115.83,2.115Z" transform="translate(-626.821 -321.309)"/><path class="d" d="M780.4,342.985h1.945v-.329h-1.566v-1.478H782.2v-.33h-1.423V339.48h1.5v-.33H780.4v3.834Z" transform="translate(-648.91 -321.309)"/><path class="c" d="M799.527,339.48h.555a1.393,1.393,0,0,1,1.555,1.56c0,1.176-.709,1.615-1.8,1.615h-.313V339.48Zm-.379,3.5h.67c1.269,0,2.2-.533,2.2-1.923a1.714,1.714,0,0,0-1.917-1.912h-.951v3.835Z" transform="translate(-664.451 -321.309)"/><path class="d" d="M823.357,342.985h.379V339.15h-.379v3.834Z" transform="translate(-684.518 -321.309)"/><path class="d" d="M835.536,338.909a2.482,2.482,0,0,0-.879-.143,1.85,1.85,0,0,0-1.934,1.983,1.828,1.828,0,0,0,1.934,1.983,2.068,2.068,0,0,0,.879-.165l-.021-.329a1.9,1.9,0,0,1-.857.165,1.49,1.49,0,0,1-1.555-1.654,1.506,1.506,0,0,1,1.555-1.654,1.988,1.988,0,0,1,.857.165l.022-.352Z" transform="translate(-692.281 -320.991)"/><path class="d" d="M855.462,342.567a2.189,2.189,0,0,0,.868.165,1.124,1.124,0,0,0,1.258-1.082c0-1.121-1.758-1.126-1.758-1.9,0-.495.434-.659.83-.659a1.563,1.563,0,0,1,.7.143l.06-.346a2.284,2.284,0,0,0-.752-.126,1.079,1.079,0,0,0-1.214,1c0,1.005,1.758,1.1,1.758,1.851a.765.765,0,0,1-.862.786,1.509,1.509,0,0,1-.846-.225l-.038.39Z" transform="translate(-711.119 -320.991)"/><path class="e" d="M223.369,249.133a12.832,12.832,0,0,0,3.939.618c2.936,0,5.814-1.009,5.814-4.734,0-5.187-6.25-3.623-6.25-5.949,0-1.256,1.477-1.338,2.367-1.338a6.609,6.609,0,0,1,2.936.659l.227-2.964a10.353,10.353,0,0,0-3.409-.535c-2.651,0-5.758.947-5.757,4.4,0,5.228,6.25,3.54,6.25,6.216,0,1.153-1.06,1.4-2.178,1.4a7.253,7.253,0,0,1-3.637-.947l-.3,3.17Z" transform="translate(-187.089 -234.889)"/><path class="b" d="M289.9,250.7h3.523v-5.023h1.364c3.3,0,5.246-1.729,5.246-4.631,0-3.231-1.894-4.714-5.928-4.714h-4.2V250.7Zm3.522-11.65h.909c1.212,0,2.178.473,2.178,1.935,0,1.5-.966,1.976-2.178,1.976h-.909v-3.911Z" transform="translate(-242.343 -236.085)"/><path class="b" d="M353.572,242.32c0,4.57,2.311,7.431,6.629,7.431s6.629-2.861,6.628-7.431c0-4.611-2.273-7.431-6.629-7.431s-6.629,2.82-6.628,7.431Zm3.636,0c0-2.491.852-4.59,2.992-4.59s2.992,2.1,2.992,4.59c0,2.367-.852,4.59-2.992,4.59s-2.992-2.223-2.992-4.59Z" transform="translate(-295.122 -234.889)"/><path class="b" d="M439.823,250.7h3.523v-5.681h.739c1.307,0,1.761.617,2.481,3.088l.758,2.594H451l-1.288-3.911c-.663-1.75-.739-2.841-1.875-3.17v-.041c1.7-.432,2.538-1.708,2.538-3.623,0-2.47-1.913-3.623-4.262-3.623h-6.288V250.7Zm3.522-11.65h.928c1.344,0,2.576.247,2.576,1.585,0,1.626-1.439,1.667-2.576,1.667h-.928v-3.252Z" transform="translate(-366.613 -236.085)"/><path class="e" d="M514.2,250.7h8.977v-2.841h-5.455V236.332H514.2V250.7Z" transform="translate(-428.263 -236.085)"/><path class="b" d="M567.248,250.7h3.579l1.041-3.067h4.962l.985,3.067h3.864l-5.1-14.367h-4.318L567.248,250.7Zm8.75-5.784h-3.314l1.7-5.619h.038L576,244.915Z" transform="translate(-472.234 -236.085)"/><path class="e" d="M651.9,249.133a12.835,12.835,0,0,0,3.939.618c2.936,0,5.814-1.009,5.814-4.734,0-5.187-6.25-3.623-6.25-5.949,0-1.256,1.477-1.338,2.367-1.338a6.609,6.609,0,0,1,2.936.659l.227-2.964a10.354,10.354,0,0,0-3.409-.535c-2.652,0-5.758.947-5.757,4.4,0,5.228,6.25,3.54,6.25,6.216,0,1.153-1.06,1.4-2.178,1.4a7.251,7.251,0,0,1-3.636-.947l-.3,3.17Z" transform="translate(-542.292 -234.889)"/><path class="e" d="M712.543,250.7h3.523V239.173h3.257v-2.841H709.285v2.841h3.258V250.7Z" transform="translate(-589.965 -236.085)"/><path class="e" d="M774.215,250.7h3.523V236.332h-3.523V250.7Z" transform="translate(-643.784 -236.085)"/><path class="e" d="M815.332,246.169a8.657,8.657,0,0,1-3.295.741,4.209,4.209,0,0,1-4.413-4.528c0-2.676,1.629-4.652,4.129-4.652a6.509,6.509,0,0,1,3.447,1.009l.284-3.108a12.762,12.762,0,0,0-3.92-.741c-4.356,0-7.576,2.49-7.576,7.492,0,5.434,4.072,7.369,7.595,7.369a13.551,13.551,0,0,0,3.92-.576l-.171-3.005Z" transform="translate(-668.463 -234.889)"/><path class="b" d="M48.076,247.426a8.19,8.19,0,1,0,8.19-8.19,8.19,8.19,0,0,0-8.19,8.19Zm-2.493,0a10.683,10.683,0,1,1,10.683,10.683,10.683,10.683,0,0,1-10.683-10.683Z" transform="translate(-39.836 -236.426)"/></g></svg>