<svg xmlns="http://www.w3.org/2000/svg" width="209.064" height="17.252" viewBox="0 0 209.064 17.252"><g transform="translate(-494.389 -490.776)"><rect width="5.584" height="1.292" transform="translate(590.649 500.396)"/><g transform="translate(494.389 490.776)"><path d="M497.787,493.417l-.5,12.969v.227c0,1.1.326,1.323,2.075,1.449v.6c-1.274-.1-1.775-.126-2.475-.126s-1.2.025-2.5.126v-.6c1.749-.126,2-.326,2.048-1.676l.526-12.269v-.149c0-1.15-.351-1.4-2.075-1.5v-.625c.976.076,1.35.1,2.05.1a18.949,18.949,0,0,0,2.374-.126l4.649,12.645,4.723-12.645a23.376,23.376,0,0,0,2.4.126c.624,0,1.024-.025,1.974-.1v.625c-1.7.1-2.075.351-2.075,1.476v.175l.275,12.269c.025,1.35.25,1.55,2.05,1.676v.6a24.527,24.527,0,0,0-6.249,0v-.6c1.7-.1,2.075-.376,2.075-1.55v-.126l-.225-12.944-4.123,11.146-.3.824-.349.925-.326.948-.275.824h-.374l-.273-.8-.351-.973-.349-.975-.3-.875Z" transform="translate(-494.389 -491.634)"/><path d="M611.22,523.489c.25-2.874,1.2-4.348,2.8-4.348,1.625,0,2.45,1.4,2.6,4.348Zm3.249,6.548c-2.275,0-3.274-1.749-3.3-5.648h7.448c-.05-3.85-1.625-5.9-4.573-5.9-3,0-4.874,2.424-4.874,6.272s1.875,6.1,5.1,6.1c2.449,0,4.048-1.524,4.373-4.1h-1c-.3,2.124-1.4,3.274-3.173,3.274" transform="translate(-589.056 -513.634)"/><path d="M671.449,518.946v-.45a15.47,15.47,0,0,0,3.3-.574c.124.925.175,1.323.225,2.073v.275a3.15,3.15,0,0,1,2.923-2.25,2.025,2.025,0,0,1,2.174,2.025,1.068,1.068,0,0,1-1.049,1.2.924.924,0,0,1-1.024-.85,1.424,1.424,0,0,1,.05-.248l.05-.25v-.225c0-.351-.3-.6-.751-.6-1.3,0-2.124,1.575-2.124,4.05v5.223c0,1.074.25,1.274,1.775,1.348v.5a26.089,26.089,0,0,0-5.574,0v-.5c1.524-.074,1.8-.274,1.8-1.348V520.17c-.025-1.074-.149-1.2-1.449-1.224Z" transform="translate(-640.401 -513.165)"/><path d="M734.864,517.208v4.123h-.551c-.448-2.174-1.373-3.224-2.9-3.224-1.873,0-2.973,2.023-2.973,5.6,0,3.5.974,5.273,2.9,5.273q2.325,0,2.773-3.3h1.026c-.326,2.674-1.749,4.123-4,4.123-2.9,0-4.872-2.45-4.872-6.1,0-3.724,2-6.272,4.948-6.272a3.233,3.233,0,0,1,2.548,1.049l.675-1.274Z" transform="translate(-685.634 -512.576)"/><path d="M789.092,523.489c.25-2.874,1.2-4.348,2.8-4.348,1.625,0,2.45,1.4,2.6,4.348Zm3.248,6.548c-2.275,0-3.274-1.749-3.3-5.648h7.447c-.051-3.85-1.625-5.9-4.573-5.9-3,0-4.874,2.424-4.874,6.272s1.876,6.1,5.1,6.1c2.45,0,4.048-1.524,4.374-4.1h-1c-.3,2.124-1.4,3.274-3.173,3.274" transform="translate(-735.758 -513.634)"/><path d="M857.63,507.327c-1.8,0-2.75-1.873-2.75-5.446,0-3.625.875-5.4,2.675-5.4,1.848,0,2.8,1.9,2.8,5.574,0,3.472-.925,5.272-2.723,5.272m4.7-2.124V490.776a23.588,23.588,0,0,1-3.774.683v.425c1.575,0,1.775.174,1.775,1.474v4.374c-.925-1.5-1.649-1.949-3-1.949-2.675,0-4.548,2.525-4.548,6.123s1.9,6.123,4.622,6.123a3.225,3.225,0,0,0,3.1-2.05,9.328,9.328,0,0,0,.351,2,12.553,12.553,0,0,1,2.923-.6l.376-.051V506.9c-1.676-.05-1.825-.174-1.825-1.7" transform="translate(-789.977 -490.776)"/><path d="M925.113,523.489c.25-2.874,1.2-4.348,2.8-4.348,1.625,0,2.449,1.4,2.6,4.348Zm3.249,6.548c-2.275,0-3.274-1.749-3.3-5.648h7.448c-.05-3.85-1.625-5.9-4.573-5.9-3,0-4.874,2.424-4.874,6.272s1.876,6.1,5.1,6.1c2.449,0,4.048-1.524,4.374-4.1h-1c-.3,2.124-1.4,3.274-3.173,3.274" transform="translate(-847.942 -513.634)"/><path d="M989.078,530.175V526l.549-.025c.45,2.275,1.5,3.373,3.249,3.373a2.373,2.373,0,0,0,2.573-2.248c0-.849-.473-1.425-1.7-1.974l-.948-.425-1.15-.526c-1.825-.849-2.4-1.55-2.4-3,0-1.974,1.55-3.324,3.749-3.324a4.163,4.163,0,0,1,2.548.8l.425-1.026h.45V521.5h-.574c-.225-2-1.049-2.95-2.624-2.95a2.189,2.189,0,0,0-2.349,2.075c0,1,.374,1.325,2.647,2.324l1.051.45c1.9.824,2.574,1.623,2.574,3.1,0,2.1-1.674,3.6-4.024,3.6a4.492,4.492,0,0,1-3-1.049l-.6,1.125Z" transform="translate(-902.389 -512.923)"/><path d="M1083.741,500.74a3.4,3.4,0,0,1,2.648.8,4.129,4.129,0,0,1,.9,2.849c0,2.5-1.251,3.9-3.474,3.9h-.9c-1.325,0-1.55-.2-1.55-1.3V500.74Zm-2.374-7.572h2.124c2.1,0,3.024,1.026,3.024,3.349a3.845,3.845,0,0,1-.824,2.624c-.551.624-1.226.824-2.624.824h-1.7Zm7.372,3.3a3.925,3.925,0,0,0-1.5-3.173,5.358,5.358,0,0,0-3.448-.9h-6.573v.624c1.8.1,2.048.3,2.048,1.649V506.79c0,1.348-.2,1.524-2.048,1.674v.6h6.323a6.64,6.64,0,0,0,3.9-.875,4.7,4.7,0,0,0,2.073-3.9,4.153,4.153,0,0,0-1.55-3.324,4.35,4.35,0,0,0-1.974-.8,3.781,3.781,0,0,0,2.75-3.7" transform="translate(-975.084 -492.111)"/><path d="M1161.018,523.489c.25-2.874,1.2-4.348,2.8-4.348,1.625,0,2.45,1.4,2.6,4.348Zm3.249,6.548c-2.275,0-3.274-1.749-3.3-5.648h7.448c-.05-3.85-1.625-5.9-4.573-5.9-3,0-4.872,2.424-4.872,6.272s1.874,6.1,5.1,6.1c2.449,0,4.047-1.524,4.373-4.1h-1c-.3,2.124-1.4,3.274-3.173,3.274" transform="translate(-1042.509 -513.634)"/><path d="M1220.3,518.8v-.425a15.329,15.329,0,0,0,3.3-.751,13.6,13.6,0,0,1,.25,2.174,3.775,3.775,0,0,1,3.373-1.949,3.46,3.46,0,0,1,3.3,2,5.693,5.693,0,0,1,.374,2.25v6c0,1.075.25,1.274,1.774,1.35v.5a23.816,23.816,0,0,0-2.723-.149,23.3,23.3,0,0,0-2.725.149v-.5c1.35-.051,1.676-.3,1.676-1.3v-6.123c0-2.174-.65-3.049-2.25-3.049-1.7,0-2.6,1.074-2.6,3.124v6.047c0,1,.324,1.249,1.623,1.3v.5a23.175,23.175,0,0,0-2.7-.149,23.454,23.454,0,0,0-2.7.149v-.5c1.525-.076,1.774-.275,1.774-1.35V520c-.025-1.026-.174-1.175-1.425-1.175-.074,0-.2-.025-.324-.025" transform="translate(-1093.07 -512.923)"/><path d="M1296.552,531.992l6.773-11.146h-3.074c-1.623,0-2.025.351-2.923,2.6h-.5l.574-3.249h8.6l-6.8,11.146h2.925c1.7,0,2.4-.675,3.148-2.948h.524l-.648,3.6Z" transform="translate(-1155.982 -515.04)"/><path d="M1400.268,507.018c0,1.074.226,1.274,1.524,1.274h.923c2.221,0,3.471-1.4,3.471-3.894a4.153,4.153,0,0,0-.9-2.822,3.394,3.394,0,0,0-2.647-.824h-2.372Zm1.7-7.04c1.373,0,2.046-.2,2.6-.824a3.755,3.755,0,0,0,.822-2.622c0-2.322-.9-3.346-2.995-3.346h-2.123v6.792Zm.724-7.566a5.223,5.223,0,0,1,3.446.9,4.052,4.052,0,0,1,1.472,3.173,3.777,3.777,0,0,1-2.721,3.695,3.991,3.991,0,0,1,3.52,4.119,4.641,4.641,0,0,1-2.071,3.895,6.571,6.571,0,0,1-3.922.875h-6.292v-.6c1.848-.149,2.048-.324,2.048-1.672v-12.11c0-1.35-.25-1.55-2.048-1.674v-.6Z" transform="translate(-1238.104 -492.125)"/><path d="M1482.231,524.229c-3.146.549-4.519,1.623-4.519,3.571a2,2,0,0,0,2.071,2.273c1.724,0,2.448-1.1,2.448-3.7Zm3.6,6.691a6.089,6.089,0,0,1-1.375.174c-1.222,0-1.771-.624-1.92-2.122-.9,1.6-1.775,2.172-3.373,2.172a3.2,3.2,0,0,1-3.47-3.221c0-1.524.9-2.62,2.845-3.421a13.246,13.246,0,0,1,3.7-.923v-1.5a2.681,2.681,0,0,0-.4-1.8,2.054,2.054,0,0,0-1.674-.7c-1.224,0-2.071.6-2.071,1.474v.2a2.563,2.563,0,0,1,.025.4.938.938,0,0,1-1.024,1.074.757.757,0,0,1-.824-.849c0-1.6,1.9-2.971,4.1-2.971a4.013,4.013,0,0,1,3.32,1.5,4.4,4.4,0,0,1,.549,2.622v5.093c0,1.7.223,2.223.973,2.223a3.424,3.424,0,0,0,.625-.075Z" transform="translate(-1303.727 -513.979)"/><path d="M1623.681,497.715a1.28,1.28,0,0,0,.4-.7c0-.374-.4-.549-1.348-.6v-.5a20.6,20.6,0,0,0,2.347.124,23.955,23.955,0,0,0,2.473-.124v.5a3.042,3.042,0,0,0-2.5,1.173l-2.4,2.521,3.522,5.892a2.169,2.169,0,0,0,2.246,1.35v.5c-.824-.076-1.224-.1-1.7-.1a15.481,15.481,0,0,0-1.648.1l-3.695-6.542-1.747,1.8V506c0,1.075.248,1.274,1.8,1.35v.5a25.83,25.83,0,0,0-2.769-.151,25.534,25.534,0,0,0-2.772.151v-.5c1.548-.076,1.8-.275,1.8-1.35V493.4c0-1.274-.2-1.449-1.773-1.449v-.45a21.717,21.717,0,0,0,3.745-.648v11.134Z" transform="translate(-1419.36 -490.836)"/><path d="M1539.4,518.382a15.165,15.165,0,0,0,3.3-.749,11.3,11.3,0,0,1,.275,2.172,3.8,3.8,0,0,1,3.371-1.947,3.536,3.536,0,0,1,3.1,1.621,4.936,4.936,0,0,1,.549,2.624v5.991c0,1.075.276,1.274,1.8,1.35v.5a23.694,23.694,0,0,0-2.746-.151,23.165,23.165,0,0,0-2.7.151v-.5c1.323-.05,1.647-.3,1.647-1.3v-6.117a3.819,3.819,0,0,0-.4-2.174,2.067,2.067,0,0,0-1.823-.873,2.561,2.561,0,0,0-2.122,1.072,3.219,3.219,0,0,0-.475,2.073v6.018c0,1,.326,1.249,1.623,1.3v.5a23.167,23.167,0,0,0-2.7-.151,23.577,23.577,0,0,0-2.721.151v-.5c1.548-.076,1.8-.275,1.8-1.35v-7.715c0-1.424-.1-1.522-1.447-1.548h-.326Z" transform="translate(-1356.255 -512.927)"/></g></g></svg>